<svg width="1404" height="1872" viewBox="-702 0 1404 1872" xmlns="http://www.w3.org/2000/svg" xmlns:xlink="http://www.w3.org/1999/xlink" version="1.2" baseProfile="tiny"><title>LP lecture</title>\n<g><path fill="#000000" d="M20.4735 1044.96 L20.4735 1044.96 L21.977 1044.51 L22.8649 1043.49 L22.8652 1042.87 L16.8342 1038.31 L13.1577 1033.53 L13.4974 1032.02 L19.8508 1026.53 L19.5278 1024.16 L16.4736 1024.15 L11.5031 1028.8 L10.7718 1028.25 L9.01764 1023.53 L7.49658 1023.02 L5.47198 1023.16 L5.0166 1024.5 L5.1377 1026.55 L7.86035 1032.44 L7.84143 1033.53 L3.99481 1037.95 L-2.49237 1039.99 L-6.44165 1041.87 L-8.54504 1041.98 L-10.8555 1039.56 L-9.29596 1034.82 L-4.72949 1033.31 L-2.02618 1031.56 L-2.49731 1030.02 L-3.47266 1029.16 L-6.49988 1029.97 L-7.83514 1029.53 L-7.15747 1027.53 L-7.79718 1025.5 L-7.25928 1024.78 L-1.51288 1023.15 L1.4718 1024.82 L2.85071 1023.53 L2.8504 1021.48 L2.18939 1020.72 L-0.446228 1019.14 L-1.49927 1019.03 L-8.4386 1020.87 L-10.4932 1020.99 L-21.5034 1019.03 L-24.5037 1019.98 L-27.5262 1019.85 L-28.473 1019.16 L-30.5 1019.8 L-31.5284 1019.18 L-33.8977 1020.87 L-33.9739 1022.92 L-24.0262 1025.08 L-24.0152 1029.5 L-24.8522 1031.47 L-24.9857 1034.49 L-24.6833 1035.8 L-23.1328 1037.9 L-21.4719 1037.85 L-20.2009 1036.5 L-20.8525 1035.53 L-20.9852 1033.51 L-19.023 1024.54 L-17.4728 1024.16 L-16.5001 1024.8 L-15.4994 1024.2 L-12.1025 1026.87 L-12.1379 1029.55 L-13.8625 1032.45 L-13.9858 1033.51 L-13.8517 1042.53 L-12.1902 1044.28 L-9.5545 1045.86 L-6.43866 1045.87 L-0.422424 1044.11 L1.75079 1042.77 L6.20648 1041.27 L10.2843 1036.3 L16.8099 1043.28 L19.4487 1044.86 M-291.534 1043.98 L-291.534 1043.98 L-287.81 1042.28 L-284.715 1039.19 L-283.138 1036.55 L-283.139 1034.45 L-284.837 1032.1 L-287.711 1036.18 L-291.474 1039.85 L-296.526 1039.85 L-297.886 1037.95 L-292.227 1033.75 L-282.775 1029.25 L-281.201 1027.5 L-282.474 1026.15 L-286.554 1026.14 L-289.773 1028.25 L-295.177 1030.71 L-296.472 1031.84 L-297.834 1031.53 L-297.86 1030.44 L-296.25 1026.77 L-295.149 1025.53 L-295.148 1023.47 L-295.861 1021.86 L-291.554 1019.14 L-288.867 1019.1 L-286.498 1021.8 L-285.149 1020.53 L-285.103 1016.87 L-287.446 1015.14 L-292.554 1015.14 L-299.184 1018.71 L-302.851 1022.47 L-302.851 1024.53 L-301.149 1026.47 L-301.03 1027.5 L-302.835 1034.46 L-302.201 1035.5 L-302.843 1036.47 L-302.861 1037.56 L-300.923 1042.13 L-298.554 1043.86 M-315.03 1043.53 L-315.03 1043.53 L-313.854 1042.92 L-310.481 1036.94 L-307.14 1027.56 L-307.313 1026.2 L-308.715 1023.81 L-310.473 1022.16 L-311.98 1022.5 L-312.842 1023.47 L-312.148 1025.47 L-312.133 1027.56 L-313.796 1032.45 L-315.686 1035.72 L-315.985 1028.5 L-315.157 1025.47 L-316.074 1023.87 L-318.469 1022.18 L-319.211 1022.73 L-320.858 1029.5 L-319.024 1040.1 L-318.29 1042.18 L-315.523 1043.83 M-326.156 1041.54 L-326.156 1041.54 L-325.201 1039.5 L-325.853 1038.53 L-325.938 1036 L-321.532 1034.01 L-321.203 1033.5 L-323.81 1030.71 L-326.269 1029.2 L-328.647 1020.78 L-330.477 1017.15 L-333.526 1017.15 L-336.716 1020.71 L-337.476 1020.15 L-340.526 1020.15 L-341.759 1021.23 L-351.259 1023.78 L-353.474 1025.85 L-354.5 1025.97 L-355.842 1025.53 L-355.969 1024.5 L-354.912 1021.84 L-349.559 1019.13 L-346.474 1019.15 L-345.527 1019.84 L-344.473 1019.84 L-343.151 1018.53 L-343.115 1016.84 L-348.5 1014.15 L-355.967 1017.5 L-359.202 1019.71 L-360.863 1031.56 L-359.207 1036.45 L-357.166 1040.31 L-354.554 1041.86 L-351.474 1041.85 L-345.691 1038.16 L-342.867 1033.08 L-340.062 1039.91 L-338.474 1039.85 L-337.751 1039.22 L-335.249 1032.78 L-334.523 1032.15 L-332.444 1032.02 L-330.891 1034.31 L-329.211 1041.27 L-327.501 1041.97 M-398.042 1041.52 L-398.042 1041.52 L-394.81 1039.28 L-392.711 1037.18 L-390.138 1032.55 L-390.014 1031.49 L-390.138 1027.45 L-393.712 1020.82 L-395.474 1019.15 L-396.504 1019.02 L-400.554 1019.14 L-403.19 1020.72 L-405.289 1022.82 L-407.862 1027.45 L-407.986 1028.51 L-407.862 1036.55 L-406.285 1039.19 L-403.526 1041.85 L-399.504 1041.98 M-415.037 1040.52 L-415.037 1040.52 L-413.857 1038.47 L-412.901 1034.39 L-411.16 1021.54 L-411.843 1020.53 L-411.843 1019.47 L-411.157 1018.53 L-411.158 1017.47 L-412.001 1016.5 L-413.473 1015.16 L-415.193 1015.7 L-417.775 1036.25 L-418.503 1036.8 L-422.285 1033.19 L-426.713 1025.82 L-428.134 1024.93 L-429.834 1022.69 L-433.473 1020.16 L-435.007 1020.52 L-437.217 1024.6 L-439.855 1034.5 L-438.02 1040.47 L-436.5 1040.97 L-434.749 1040.22 L-431.223 1028.31 L-429.711 1029.82 L-425.926 1036.13 L-420.526 1040.85 L-416.504 1040.98 M-55.2312 1039.72 L-55.2312 1039.72 L-48.8099 1036.28 L-46.7153 1034.19 L-45.1378 1031.55 L-45.148 1024.47 L-46.0742 1022.87 L-48.4464 1021.14 L-55.5543 1021.14 L-58.1901 1022.72 L-60.2498 1024.78 L-62.8622 1030.45 L-62.8624 1035.55 L-61.285 1038.19 L-59.5263 1039.85 M-98.5289 1039.96 L-98.5289 1039.96 L-97.1557 1039.53 L-96.9321 1033.99 L-82.5273 1030.12 L-79.4704 1034.02 L-76.5544 1035.86 L-71.4415 1035.87 L-65.6915 1033.16 L-63.1442 1028.56 L-63.1398 1027.44 L-64.7507 1023.77 L-68.025 1020.5 L-69.29 1020.71 L-70.8408 1019.11 L-74.4965 1019.02 L-77.1336 1020.07 L-80.2497 1023.77 L-82.4756 1027.84 L-84.4741 1027.15 L-87.4936 1027.01 L-94.4388 1028.87 L-96.5277 1028.84 L-96.9849 1025.5 L-96.031 1022.5 L-96.694 1020.77 L-77.9441 1017.89 L-76.5222 1017 L-76.5327 1015.99 L-81.5089 1014.14 L-96.247 1015.94 L-107.109 1018.65 L-109.851 1020.48 L-109.843 1022.53 L-106.504 1022.98 L-104.529 1022.15 L-102.954 1022.08 L-101.135 1025.44 L-101.102 1028.13 L-104.799 1031.5 L-103.926 1033.13 L-101.732 1034.79 L-100.229 1039.25 M-379.04 1039.52 L-379.04 1039.52 L-377.712 1038.18 L-375.171 1034.11 L-371.926 1038.13 L-369.556 1039.86 L-368.198 1039.69 L-365.71 1038.18 L-363.133 1025.56 L-364.02 1023.5 L-366.526 1023.15 L-367.916 1023.99 L-369.94 1032.31 L-372.782 1022.74 L-373.478 1022.15 L-375.524 1022.15 L-377.187 1024.58 L-379.712 1032.19 L-380.682 1033.72 L-380.985 1026.5 L-380.148 1024.53 L-380.149 1021.47 L-381.474 1020.15 L-383.522 1020.15 L-384.201 1020.72 L-385.867 1032.56 L-384.19 1037.42 L-383.006 1039.48 L-381.496 1039.98 M-39.046 1038.52 L-39.046 1038.52 L-38.1486 1037.53 L-38.1386 1035.45 L-39.8674 1033.1 L-41.5285 1033.15 L-42.8511 1034.47 L-42.8505 1036.52 L-39.5242 1038.82 M-353.454 1037.81 L-353.454 1037.81 L-354.246 1037.22 L-355.866 1033.56 L-355.477 1030.99 L-349.25 1027.77 L-344.754 1026.23 L-342.495 1024.2 L-342.016 1025.5 L-342.162 1029.52 L-344.528 1029.16 L-346.285 1030.81 L-348.076 1034.13 M-402.125 1037.9 L-402.125 1037.9 L-403.861 1035.55 L-403.862 1028.45 L-401.923 1024.87 L-399.556 1023.14 L-398.444 1023.14 L-395.718 1024.81 L-394.134 1028.44 L-394.138 1031.55 L-397.074 1036.13 L-399.446 1037.86 M-55.4257 1034.85 L-55.4257 1034.85 L-57.8427 1034.53 L-57.8624 1030.45 L-56.2849 1027.81 L-54.7073 1026.29 L-52.5074 1027.86 L-50.5 1026.2 L-49.158 1027.47 L-50.1003 1031.13 M-72.4221 1031.85 L-72.4221 1031.85 L-75.5267 1031.85 L-77.8293 1029.47 L-76.2496 1025.77 L-73.5262 1023.15 L-72.5002 1023.03 L-71.1585 1023.47 L-70.923 1025.05 L-68.0164 1027.44 L-68.5291 1030.01 M-8.47839 1030.79 L-8.47839 1030.79 L-8.50488 1030.2 M-331.45 1027.83 L-331.45 1027.83 L-333.834 1027.53 L-333.703 1026.21 L-332.5 1024.25 L-331.141 1026.44 M-337.478 1024.79 L-337.478 1024.79 L-337.505 1024.2 M-101.478 1021.79 L-101.478 1021.79 L-101.505 1021.2 M-450.04 920.523 L-450.04 920.523 L-448.707 919.177 L-446.134 913.559 L-446.157 897.472 L-447.5 897.031 L-449.193 897.703 L-451.677 915.136 L-452.254 915.696 L-454.867 908.56 L-454.852 906.474 L-454.148 905.526 L-454.103 902.867 L-456.472 901.178 L-456.977 901.502 L-458.25 902.776 L-460.707 908.177 L-465.505 912.8 L-465.984 911.496 L-465.985 904.503 L-465.148 902.526 L-465.103 899.867 L-467.5 898.162 L-469.898 899.867 L-469.985 913.496 L-468.926 916.133 L-466.493 917.843 L-462.775 916.249 L-458.748 912.301 L-455.014 920.471 L-452.5 920.998 M-573.041 918.523 L-573.041 918.523 L-572.148 917.531 L-572.016 915.504 L-572.498 914.018 L-573.851 912.526 L-573.985 911.496 L-573.985 907.503 L-573.246 905.771 L-567.494 904.014 L-559.504 904.015 L-556.473 904.842 L-555.158 903.527 L-555.498 902.019 L-556.72 900.794 L-565.498 899.142 L-573.531 900.834 L-573.984 899.496 L-573.868 896.439 L-572.229 891.754 L-570.497 891.015 L-565.441 891.134 L-552.494 894.985 L-550.474 894.851 L-549.5 893.974 L-550.081 891.856 L-555.558 888.795 L-563.441 886.134 L-570.497 886.015 L-572.5 886.799 L-573.474 886.147 L-576.494 886.014 L-583.467 887.98 L-583.896 890.133 L-581.555 891.856 L-579.499 891.201 L-578.149 892.474 L-578.148 894.526 L-578.985 896.503 L-578.862 915.554 L-576.524 918.851 L-574.504 918.984 M-524.248 915.733 L-524.248 915.733 L-519.511 914.01 L-516.81 912.285 L-515.768 911.246 L-514.132 906.56 L-514.134 903.441 L-516.707 897.823 L-517.775 896.75 L-521.442 895.135 L-523.526 895.148 L-524.5 895.799 L-525.473 895.157 L-526.981 895.498 L-530.293 898.823 L-532.866 904.441 L-532.862 910.554 L-531.285 913.19 L-530.246 914.232 L-525.562 915.862 M-504.041 914.523 L-504.041 914.523 L-503.157 913.534 L-503.144 912.445 L-504.717 909.811 L-506.131 909.135 L-507.862 911.446 L-507.843 914.528 L-505.504 914.984 M-546.204 914.695 L-546.204 914.695 L-540.868 911.924 L-537.702 908.17 L-536.81 906.424 L-535.133 901.56 L-535.138 899.446 L-536.715 896.81 L-538.474 895.149 L-542.526 895.147 L-543.5 895.799 L-544.474 895.148 L-546.554 895.138 L-549.19 896.715 L-551.25 898.775 L-553.852 903.474 L-553.862 909.554 L-552.285 912.19 L-549.526 914.851 M-476.04 913.523 L-476.04 913.523 L-474.707 912.177 L-472.134 906.559 L-472.014 901.506 L-474.788 887.733 L-476.5 887.031 L-477.981 887.497 L-478.851 888.474 L-478.97 889.498 L-478.02 892.146 L-476.014 902.507 L-476.138 906.554 L-477.718 909.189 L-478.502 909.798 L-480.144 908.919 L-482.508 904.966 L-485.707 897.823 L-489.502 893.202 L-491.05 894.05 L-493.866 900.441 L-493.985 906.496 L-493.503 907.981 L-492.527 908.842 L-490.993 908.477 L-489.144 905.555 L-489.842 902.472 L-488.748 901.301 L-484.288 910.184 L-482.472 912.023 L-479.554 913.862 L-477.504 913.984 M-525.468 910.824 L-525.468 910.824 L-527.897 909.132 L-527.852 904.474 L-526.973 903.005 L-522.562 901.134 L-521 901.064 L-519.155 905.49 L-520.838 908.31 M-546.43 909.845 L-546.43 909.845 L-547.976 909.506 L-548.851 908.526 L-548.986 905.506 L-547.283 901.81 L-546.525 901.159 L-545.472 901.158 L-541.114 903.958 L-541.126 904.48 L-543.692 908.166 M-540.473 901.79 L-540.473 901.79 L-540.832 900.48 L-540.5 900.198 L-540.168 901.53 M-573.478 891.79 L-573.478 891.79 L-573.505 891.197 M317.745 825.721 L317.745 825.721 L322.463 824.031 L323.851 822.526 L323.842 820.472 L321.438 820.13 L313.515 821.849 L310.149 819.524 L310.148 814.474 L310.85 813.53 L311.04 812.047 L321.24 809.232 L321.841 808.524 L321.842 807.473 L320.526 806.149 L319.496 806.015 L315.473 806.148 L314.526 806.852 L312.5 806.998 L308.068 806.034 L306.129 814.438 L306.148 820.526 L307.074 822.134 L311.473 825.851 L315.526 825.853 L316.5 825.201 M375.966 823.514 L375.966 823.514 L377.672 820.205 L375.509 818.135 L373.527 819.842 L371.992 819.477 L369.772 816.249 L368.168 811.539 L368.776 810.753 L374.473 808.022 L376.851 805.526 L376.85 803.476 L371.554 800.138 L370.5 800.029 L361.868 802.078 L360.166 804.308 L357.159 806.473 L358.803 819.29 L359.476 819.841 L361.196 819.292 L362.801 806.709 L366.471 804.177 L367.472 804.843 L368.527 804.843 L369.474 804.148 L371.524 804.163 L371.499 804.975 L370.246 806.232 L365.536 807.969 L364.497 809.018 L364.016 810.504 L364.134 812.559 L366.707 818.177 L367.85 819.471 L368.106 821.144 L372.446 823.862 L374.495 823.984 M223.96 823.517 L223.96 823.517 L224.905 822.014 L226.974 808.537 L227.476 808.159 L230.91 809.02 L232.962 821.459 L234.473 822.851 L239.559 822.866 L243.228 821.247 L246.19 819.285 L248.841 816.529 L248.682 815.195 L247.13 813.135 L246.017 813.5 L244.183 815.289 L238.527 818.842 L236.5 817.974 L237.122 813.821 L244.26 811.221 L245.797 809.503 L245.224 808.754 L241.559 807.139 L239.526 807.852 L236.472 807.842 L236.158 806.472 L237.741 804.779 L243.461 803.165 L244.474 803.853 L248.527 803.842 L248.842 802.472 L248.502 802.019 L245.526 799.149 L242.506 799.014 L231.94 802.08 L230.304 804.776 L222.437 803.137 L214.686 805.769 L212.498 803.202 L210.786 804.731 L208.255 814.21 L207.499 814.796 L206.709 814.176 L203.291 806.824 L200.146 804.103 L197.994 804.522 L196.81 806.575 L195.144 811.506 L196.796 820.28 L197.476 820.841 L199.25 820.219 L201.792 814.024 L203.976 817.471 L207.5 819.838 L211.293 817.177 L214.952 809.117 L216.534 809.829 L220.44 808.14 L221.53 808.166 L221.984 809.504 L221.985 817.496 L221.148 819.474 L221.148 822.526 L222.472 823.842 M351.797 822.692 L351.797 822.692 L355.285 820.19 L356.856 817.555 L356.841 816.471 L355.527 815.158 L354.472 815.158 L352.19 817.285 L349.554 818.862 L345.867 818.898 L344.14 816.556 L344.066 814.996 L352.243 812.23 L352.85 811.523 L352.851 809.474 L351.529 808.158 L350.44 808.139 L346.56 809.865 L344.867 809.896 L343.179 807.53 L343.792 806.743 L346.154 805.882 L353.962 803.939 L353.848 802.47 L352.526 801.149 L347.503 801.015 L345.5 801.799 L344.526 801.148 L342.473 801.149 L341.245 802.232 L336.561 803.863 L333.473 803.157 L332.526 803.852 L328.503 803.985 L326.526 803.148 L324.455 803.018 L322.329 805.202 L322.811 806.282 L325.446 807.862 L327.907 808.02 L330.092 820.978 L331.526 820.848 L332.195 820.294 L334.093 807.02 L337.545 807.018 L339.822 809.472 L338.178 811.527 L341.713 821.19 L342.707 822.71 L343.502 822.202 L345.503 822.985 M274.959 822.523 L274.959 822.523 L275.852 821.531 L275.984 820.496 L275.852 818.474 L275.015 816.496 L275.138 811.446 L276.838 808.69 L281.184 806.289 L283.023 804.472 L284.862 801.554 L284.851 798.474 L282.526 796.149 L274.441 796.134 L270.775 797.753 L270.149 798.477 L270.149 800.526 L271.474 801.851 L273.526 801.851 L275.473 800.149 L279.496 800.016 L280.8 800.495 L278.244 803.234 L273.953 805.183 L271.149 807.476 L271.138 820.554 L272.867 822.896 M185.497 821.854 L185.497 821.854 L187.5 819.983 L187.866 818.855 L186.017 816.544 L186.148 812.474 L186.985 810.496 L186.897 802.867 L184.674 801.238 L182.129 811.438 L182.015 819.496 L182.497 820.981 L183.473 821.851 M303.959 820.523 L303.959 820.523 L304.864 819.497 L304.86 818.859 L297.139 814.141 L297.5 813.017 L301.851 808.526 L301.985 805.503 L301.468 803.982 L295.493 802.015 L293.441 802.134 L289.775 803.75 L287.993 806.218 L286.143 814.497 L287.781 820.259 L288.477 820.85 L290.523 820.85 L292.961 817.115 L293.516 817.121 L300.446 820.862 L302.496 820.984 M252.482 819.791 L252.482 819.791 L253.851 818.526 L253.985 817.496 L253.985 810.503 L253.201 808.499 L256.473 805.158 L258.5 805.799 L259.473 805.157 L260.527 805.158 L262.799 807.5 L261.19 809.285 L255.523 812.992 L255.031 814.5 L255.81 816.283 L258.446 817.862 L264.496 817.985 L265.982 817.502 L267.711 815.701 L263.081 813.187 L266.851 809.526 L266.985 806.503 L266.502 805.018 L262.526 801.149 L255.445 801.138 L249.149 805.476 L249.13 810.562 L250.79 818.275 M291.526 816.79 L291.526 816.79 L291.168 815.48 L291.5 815.198 L291.832 816.53 M291.839 812.493 L291.839 812.493 L291.16 812.53 L291.138 809.446 L292.867 807.102 L296.524 807.162 L296.499 807.975 L292.523 810.991 M307.717 803.76 L307.717 803.76 L321.234 801.239 L322.841 799.528 L322.835 798.471 L321.496 798.017 L319.437 798.129 L306.606 799.967 L303.769 800.762 L303.159 801.476 L303.158 802.527 L304.474 803.851 M-270.203 799.692 L-270.203 799.692 L-266.868 797.923 L-265.139 795.554 L-265.139 793.447 L-266.714 791.291 L-271.474 795.851 L-274.494 795.986 L-278.282 794.191 L-279.86 789.861 L-276.227 787.679 L-266.806 784.277 L-265.028 782.498 L-265.107 781.87 L-267.511 780.155 L-278.441 783.86 L-279.835 783.529 L-279.842 782.473 L-279.149 781.528 L-278.879 779.821 L-277.551 778.939 L-271.561 777.131 L-267.474 777.149 L-265.472 778.822 L-263.103 777.133 L-263.149 774.477 L-263.775 773.753 L-267.508 772.148 L-277.898 774.488 L-285.218 776.749 L-285.849 777.475 L-285.972 778.547 L-284.102 780.853 L-284.148 783.526 L-284.984 785.504 L-284.852 787.526 L-284.148 788.474 L-284.149 791.524 L-287.772 794.247 L-291.493 795.843 L-294.282 794.191 L-295.866 790.559 L-295.866 784.441 L-294.139 780.559 L-294.159 779.471 L-295.472 778.151 L-297.144 778.11 L-299.862 782.446 L-299.986 783.506 L-299.866 792.559 L-297.908 797.156 L-292.559 799.865 L-290.44 799.867 L-285.754 798.232 L-283.286 795.291 L-280.19 798.285 L-277.554 799.862 M-312.022 799.529 L-312.022 799.529 L-310.502 799.015 L-306.046 798.957 L-304.029 791.499 L-306.076 786.868 L-308.778 784.747 L-311.699 783.252 L-310.149 781.526 L-310.149 778.474 L-311.471 777.159 L-312.559 777.139 L-319.221 779.749 L-321.293 781.823 L-323.866 787.441 L-323.986 792.494 L-323.688 793.802 L-321.184 797.289 L-316.554 799.862 L-313.504 799.985 M487.96 798.512 L487.96 798.512 L489.856 795.556 L488.164 788.538 L489.474 787.149 L493.526 787.148 L494.471 787.851 L496.052 788.08 L498.708 794.181 L502.439 795.86 L509.906 793.526 L512.472 792.022 L514.251 790.301 L515.972 793.467 L517.775 795.249 L521.466 796.829 L523.5 796.031 L526.559 796.861 L532.177 794.293 L534.862 790.554 L534.865 788.441 L533.249 784.775 L530.866 782.926 L529.008 780.523 L527.496 780.015 L522.439 780.132 L517.562 781.862 L509.562 780.131 L506.474 780.148 L505.527 780.843 L503.471 780.177 L500.81 781.715 L498.307 784.758 L488.227 781.292 L490.046 775.043 L492.558 775.134 L496.441 776.865 L498.526 776.851 L499.842 775.528 L499.842 774.473 L498.225 772.75 L493.526 770.149 L492.503 770.03 L482.184 771.755 L477.533 772.98 L477.039 774.943 L483.99 777.426 L483.892 781.144 L480.109 783.856 L480.15 785.528 L481.47 786.849 L482.939 787.034 L485.74 797.208 L487.506 798.803 M-332.041 797.523 L-332.041 797.523 L-329.708 795.178 L-328.669 793.162 L-325.134 782.559 L-325.157 779.472 L-328.154 779.113 L-330.351 783.736 L-332.75 791.217 L-333.501 791.796 L-335.516 788.932 L-339.496 780.033 L-341.502 777.202 L-344.232 779.754 L-348.866 790.441 L-348.862 795.553 L-347.309 797.759 L-344.732 796.206 L-341.357 786.397 L-338.249 793.224 L-335.926 796.133 L-333.555 797.856 M-355.041 797.523 L-355.041 797.523 L-353.149 795.526 L-352.898 789.867 L-350.525 788.009 L-350.139 786.857 L-354.309 784.162 L-356.842 779.688 L-362.441 777.134 L-365.497 777.015 L-367.285 777.708 L-369.754 774.768 L-374.463 773.167 L-375.5 773.799 L-376.5 773.201 L-377.5 773.799 L-379.504 773.015 L-384.497 773.015 L-387.5 773.969 L-389.5 773.201 L-390.473 773.843 L-391.527 773.843 L-392.473 773.157 L-393.528 773.158 L-394.852 774.474 L-394.963 776.943 L-388.037 779.057 L-388.015 783.496 L-388.799 785.5 L-388.201 786.5 L-388.799 787.5 L-388.201 788.5 L-388.838 789.541 L-387.207 797.275 L-386.522 797.85 L-384.474 797.851 L-383.149 796.526 L-383.148 794.474 L-383.985 792.496 L-383.862 780.446 L-382.133 778.102 L-380.497 778.001 L-377.474 778.147 L-376.5 778.799 L-375.466 778.171 L-372.078 779.954 L-372.148 783.526 L-372.985 785.503 L-372.999 791.5 L-372.851 793.526 L-371.976 794.498 L-371.205 794.675 L-368.744 793.222 L-366.954 787.043 L-362.446 787.138 L-358.108 789.856 L-358.015 793.496 L-358.865 796.131 L-356.555 797.856 M-447.17 797.55 L-447.17 797.55 L-446.868 794.439 L-444.14 786.559 L-444.799 784.499 L-443.709 783.29 L-438.162 791.31 L-431.555 794.856 L-430.019 794.502 L-426.715 791.19 L-425.177 788.529 L-425.799 787.5 L-425.015 785.497 L-425.015 779.503 L-425.799 777.5 L-425.201 776.5 L-425.984 774.496 L-425.852 772.474 L-425.016 770.496 L-425.472 768.157 L-428.237 768.14 L-428.819 768.939 L-430.975 789.462 L-431.504 789.797 L-434.134 787.926 L-440.074 779.866 L-444.019 776.498 L-445.527 776.157 L-447.044 777.047 L-451.862 786.446 L-451.999 788.5 L-451.851 796.526 L-450.526 797.851 L-448.504 797.983 M335.798 795.691 L335.798 795.691 L338.271 794.204 L340.663 786.804 L343.681 779.747 L349.862 767.556 L350.1 765.853 L351.898 764.147 L351.984 761.504 L351.528 760.157 L348.867 760.102 L346.713 762.814 L340.682 774.746 L336.51 784.966 L333.288 791.184 L332.158 792.471 L332.318 793.804 L333.867 795.896 M-311.45 794.838 L-311.45 794.838 L-315.558 794.865 L-318.922 793.046 L-318.689 786.285 L-316.524 788.851 L-313.474 788.852 L-312.527 788.157 L-311.473 788.158 L-309.498 790.018 L-309.149 792.526 M-412.204 794.695 L-412.204 794.695 L-407.817 792.29 L-406.502 791.002 L-402.138 784.554 L-402.138 781.446 L-403.715 778.81 L-407.445 776.144 L-414.246 778.768 L-417.285 781.81 L-419.852 785.474 L-419.985 791.496 L-419.502 792.982 L-417.526 794.851 M1.95984 793.523 L1.95984 793.523 L7.2887 789.184 L9.86206 784.554 L9.85193 781.474 L8.91919 779.856 L3.29028 776.291 L5.86194 772.554 L5.96954 771.498 L5.50397 770.02 L3.2821 766.811 L2.49829 766.202 L1.47113 766.823 L-1.44617 765.138 L-3.55872 765.134 L-11.1844 768.712 L-12.8511 770.474 L-12.8518 772.526 L-11.9695 774.005 L-8.30493 775.768 L-8.79742 776.503 L-8.01526 778.503 L-8.01526 784.496 L-8.83301 786.537 L-7.23193 791.246 L-6.25897 792.221 L-0.561401 793.869 M-84.0419 793.523 L-84.0419 793.523 L-83.1486 792.531 L-83.0309 791.5 L-83.9849 788.496 L-83.892 782.856 L-79.5539 780.138 L-78.501 780.029 L-71.5616 781.869 L-68.4739 781.851 L-67.1511 780.529 L-67.0262 779.44 L-69.7261 777.696 L-74.4395 776.132 L-80.4966 776.015 L-83.9413 776.961 L-85.8379 769.534 L-84.4963 769.017 L-82.4387 769.131 L-72.494 771.986 L-67.4724 771.842 L-67.1583 770.472 L-68.8222 768.708 L-70.8669 767.657 L-82.4416 764.134 L-85.5536 764.138 L-87.4206 765.109 L-93.4613 766.835 L-94.4727 766.157 L-95.5276 766.158 L-96.8515 767.474 L-96.8428 770.528 L-95.4963 770.984 L-91.0368 771.048 L-87.2408 792.231 L-85.5279 793.842 M-23.0468 792.52 L-23.0468 792.52 L-21.1586 790.529 L-21.1437 789.445 L-22.9927 786.523 L-24.5276 786.158 L-25.8515 787.474 L-25.8515 790.526 L-23.9758 792.499 M-39.2313 792.72 L-39.2313 792.72 L-34.8685 790.923 L-29.1487 784.526 L-29.1345 778.441 L-30.7181 774.809 L-33.4451 773.144 L-36.5274 773.843 L-37.4744 773.148 L-39.5541 773.138 L-44.1838 775.711 L-46.2849 777.81 L-47.8624 780.446 L-47.8515 788.526 L-43.5265 792.851 M-60.2042 792.694 L-60.2042 792.694 L-55.8175 790.29 L-54.5021 789.002 L-51.1381 783.554 L-51.1379 778.446 L-52.7153 775.81 L-54.4738 774.149 L-58.5588 774.134 L-62.2252 775.751 L-65.2317 778.754 L-66.8677 783.439 L-66.8515 788.526 L-64.9544 791.043 L-61.5602 792.86 M526.577 791.854 L526.577 791.854 L521.474 791.851 L519.177 789.472 L520.715 786.81 L522.474 785.149 L524.558 785.135 L529.886 787.844 L529.921 790.046 M253.499 791.844 L253.499 791.844 L254.851 790.526 L254.985 789.497 L254.852 786.474 L254.157 785.527 L254.159 784.475 L259.184 781.289 L262.028 778.467 L263.865 774.559 L263.862 771.446 L262.285 768.81 L258.554 766.138 L255.445 766.138 L252.81 767.715 L251.148 769.474 L251.147 772.526 L251.829 773.534 L250.171 777.466 L250.799 778.5 L250.015 780.503 L250.015 788.496 L250.497 789.982 L252.018 791.502 M505.574 790.85 L505.574 790.85 L502.472 790.843 L502.018 788.455 L505.685 784.23 L510.856 786.845 L510.183 788.287 M41.8434 790.544 L41.8434 790.544 L42.8423 788.527 L42.0161 785.496 L42.4949 783.199 L47.7502 786.227 L55.4413 788.866 L58.5261 788.851 L60.7085 786.714 L57.2453 783.769 L50.0581 781.467 L47.1187 780.047 L47.4733 779.16 L49.133 778.9 L51.842 775.528 L50.9257 772.867 L48.5535 771.138 L40.4733 771.149 L37.1485 774.474 L37.1323 785.561 L38.7707 790.246 L40.4992 790.969 M31.9589 790.523 L31.9589 790.523 L32.8517 789.531 L32.9849 787.507 L31.1339 780.411 L25.9257 770.867 L23.5544 769.144 L22.4711 769.158 L20.8387 770.079 L19.2903 771.71 L18.5257 771.15 L16.8578 771.109 L14.6832 774.742 L13.0139 779.506 L13.1381 787.554 L14.8672 789.896 L17.0072 789.477 L19.8559 785.108 L24.4964 785.015 L26.9951 786.027 L29.4771 790.85 M-413.426 790.85 L-413.426 790.85 L-415.843 790.528 L-415.852 787.474 L-412.526 783.15 L-410.841 782.896 L-409.29 781.289 L-408.498 781.798 L-407.499 781.201 L-407.026 781.5 L-406.158 782.473 L-406.158 783.528 L-409.502 788.002 M-2.4798 789.179 L-2.4798 789.179 L-3.85852 787.55 L-3.98547 786.495 L-3.98505 777.503 L-3.01624 774.496 L-3.14801 772.474 L-3.84235 771.527 L-3.5304 770.166 L-2.22418 770.287 L0.751831 771.717 L-2.823 777.472 L-1.18384 779.289 L3.18353 781.711 L4.69513 783.234 L0.537109 784.968 M187.756 788.713 L187.756 788.713 L198.5 785.03 L205.493 787.843 L212.162 784.309 L214.862 779.554 L214.985 778.494 L214.862 775.446 L212.923 771.868 L210.553 770.138 L208.474 770.149 L206.184 772.289 L201.816 774.711 L200.711 775.816 L198.177 780.472 L198.968 782.5 L198.505 783.8 L196.526 782.149 L194.5 782.002 L192.439 782.132 L187.56 783.867 L185.446 783.862 L182.523 782.007 L182.137 780.439 L183.969 775.536 L185.755 773.766 L189.938 772 L189.982 769.455 L187.499 767.162 L184.81 768.715 L181.866 771.074 L178.137 776.446 L178.137 783.554 L179.849 786.318 M-38.4504 787.838 L-38.4504 787.838 L-42.5265 787.851 L-43.8516 786.526 L-43.9981 784.5 L-43.8623 782.446 L-42.3077 779.834 L-39.5558 778.139 L-38.4512 778.028 L-36.1456 779.867 L-34.4946 779.2 L-34.0021 781.5 L-34.1487 783.526 M-61.4523 787.811 L-61.4523 787.811 L-61.9822 786.504 L-61.9849 784.504 L-60.9237 780.954 L-57.5593 779.14 L-56.4698 779.166 L-56.0168 780.504 L-56.1379 782.554 L-58.5297 786.024 M488.209 786.522 L488.209 786.522 L488.802 786.495 M242.792 786.673 L242.792 786.673 L244.973 784.553 L242.995 771.811 L242.16 769.689 L239.5 768.162 L234.838 770.69 L232.923 774.132 L230.53 775.821 L229.782 775.259 L228.02 769.533 L227.524 769.159 L224.953 770.049 L222.612 774.654 L220.565 772.015 L218.867 772.102 L217.138 774.446 L217.015 780.496 L217.799 782.5 L217.177 783.528 L218.867 785.897 L221.144 785.892 L223.711 781.816 L225.5 780.201 L228.474 782.851 L230.526 782.851 L238.565 774.711 L240.797 785.284 M296.466 785.98 L296.466 785.98 L297.811 785.683 L302.183 783.289 L304.842 780.527 L304.502 779.02 L303.472 778.177 L296.493 781.843 L292.313 779.782 L299.473 777.178 L300.472 777.843 L301.527 777.842 L302.849 776.528 L302.896 774.867 L300.553 773.138 L298.438 773.131 L292.532 774.835 L292.163 774.521 L292.05 771.028 L297.461 769.165 L298.5 769.799 L299.473 769.157 L300.527 769.157 L301.474 769.852 L303.97 770.05 L306.828 778.466 L306.171 779.534 L307.753 783.225 L309.5 783.969 L310.843 783.528 L310.984 782.496 L310.852 777.474 L310.031 775.5 L310.852 773.526 L311.102 770.867 L313.446 769.138 L314.499 769.029 L319.695 770.766 L312.497 777.018 L312.138 779.554 L313.838 782.31 L318.446 784.862 L326.528 784.843 L326.968 783.5 L326.28 781.796 L317.535 780.024 L317.159 779.524 L317.523 777.993 L320.19 776.285 L324.841 771.529 L324.687 770.198 L323.285 767.81 L320.526 765.149 L314.506 765.014 L309.775 766.751 L307.526 768.851 L306.5 768.969 L305.158 768.53 L304.899 766.867 L302.553 765.138 L292.441 765.134 L286.082 767.948 L286.101 770.147 L287.898 771.853 L287.92 777.047 L280.555 780.856 L279.471 780.842 L277.148 778.526 L277.014 774.506 L279.842 766.507 L278.132 764.104 L276.474 764.151 L275.749 764.782 L274.648 767.737 L273.014 773.506 L273.137 780.554 L274.686 783.16 L278.441 784.866 L282.554 784.862 L288.309 781.241 L290.81 784.285 L293.446 785.862 M-317.45 785.81 L-317.45 785.81 L-317.866 784.866 L-315.554 783.138 L-313.284 783.315 M267.062 784.908 L267.062 784.908 L269.841 769.542 L268.527 768.158 L266.098 768.982 L264.145 781.487 L265.961 784.917 M206.574 782.85 L206.574 782.85 L203.472 782.843 L203.016 781.496 L203.497 779.018 L205.474 777.149 L206.5 777.031 L207.982 777.498 L209.842 779.473 L209.476 781.007 M-361.455 782.824 L-361.455 782.824 L-364.497 782.984 L-365.802 782.5 L-362.504 782.016 L-361.194 782.504 M41.2577 781.618 L41.2577 781.618 L41.1573 776.472 L42.5223 776.171 L42.7265 776.737 M25.5496 780.829 L25.5496 780.829 L22.4731 780.851 L21.1582 779.529 L21.2869 778.224 L22.7512 775.305 L25.8414 779.472 M210.522 778.79 L210.522 778.79 L210.495 778.197 M256.519 777.85 L256.519 777.85 L254.165 772.538 L255.473 771.149 L258.527 771.157 L258.983 772.504 L258.862 774.554 M221.522 777.79 L221.522 777.79 L221.495 777.197 M-7.47845 772.79 L-7.47845 772.79 L-7.50488 772.197 "/></g><g><path fill="#909090" d="M-184.26 1037.74 L-184.26 1037.74 L-177.494 1036.01 L-170.504 1036.02 L-167.5 1036.97 L-164.473 1036.16 L-162.497 1036.98 L-156.504 1036.98 L-154.5 1036.2 L-152.497 1036.98 L-143.5 1037 L-126.542 1035.16 L-125.528 1035.84 L-124.473 1035.84 L-122.158 1033.53 L-122.497 1032.02 L-123.473 1031.16 L-125.5 1031.8 L-126.474 1031.15 L-130.497 1031.02 L-132.5 1031.8 L-134.497 1031.03 L-142.46 1032.84 L-143.473 1032.16 L-145.5 1032.8 L-146.473 1032.16 L-147.527 1032.16 L-148.473 1032.84 L-151.527 1032.16 L-153.497 1032.97 L-164.459 1031.16 L-166.5 1031.97 L-169.503 1031.02 L-177.494 1031.01 L-182.466 1032.83 L-183.5 1032.2 L-185.504 1032.98 L-187.526 1032.85 L-188.5 1032.2 L-189.5 1032.8 L-190.5 1032.2 L-191.473 1032.84 L-192.527 1032.84 L-193.474 1032.15 L-195.497 1032.02 L-198.497 1032.97 L-220.275 1031 L-225.503 1030.03 L-228.497 1030.97 L-248.46 1028.16 L-249.474 1028.85 L-251.526 1028.85 L-252.541 1028.16 L-261.28 1029.8 L-261.971 1031.55 L-259.554 1033.86 L-258.494 1033.99 L-253.474 1033.85 L-252.527 1033.16 L-249.473 1033.84 L-248.462 1033.17 L-231.542 1035.84 L-230.528 1035.16 L-228.5 1035.8 L-227.5 1035.2 L-226.5 1035.8 L-225.53 1035.16 L-224.437 1035.14 L-220.177 1036.02 L-199.493 1037.99 L-195.474 1037.85 L-194.5 1037.2 L-192.496 1037.98 L-190.474 1037.85 L-189.527 1037.16 L-186.496 1037.98 M-466.163 1024.55 L-466.163 1024.55 L-466.147 1022.48 L-467.094 1020.83 L-481.255 1015.32 L-485.186 1013.29 L-491.19 1009.28 L-493.074 1006.87 L-499.288 1001.18 L-504.228 992.25 L-507.785 980.734 L-510.862 973.554 L-510.852 971.474 L-510.031 969.5 L-510.852 967.526 L-510.984 965.504 L-510.177 963.471 L-511.823 960.529 L-511.148 959.526 L-511.016 957.504 L-511.839 955.459 L-510.016 944.504 L-510.497 943.019 L-511.474 942.149 L-514.524 942.149 L-516.823 945.471 L-516.158 946.47 L-516.134 947.563 L-517.838 955.459 L-517.031 957.5 L-517.852 959.474 L-517.871 961.563 L-516.001 976.339 L-509.249 996.224 L-504.285 1004.19 L-494.184 1014.29 L-484.931 1019.52 L-478.597 1022.15 L-469.866 1024.65 L-467.527 1025.82 M-502.147 867.544 L-502.147 867.544 L-501.201 865.5 L-501.833 864.463 L-499.25 856.779 L-495.286 848.814 L-491.285 842.81 L-485.188 836.709 L-479.19 831.715 L-471.938 826.812 L-465.754 824.229 L-464.912 822.842 L-463.225 821.727 L-454.754 818.229 L-454.159 817.524 L-454.157 816.473 L-455.074 814.867 L-457.444 813.144 L-458.556 813.144 L-464.224 815.75 L-470.053 820.171 L-482.19 827.715 L-486.81 832.285 L-489.19 833.717 L-490.074 835.134 L-494.285 838.81 L-499.247 845.772 L-505.084 858.306 L-506.841 866.527 L-503.528 868.823 M80.9512 791.521 L80.9512 791.521 L81.8011 790.731 L83.81 790.007 L95.4581 788.16 L97.5031 788.985 L153.496 788.984 L154.843 788.528 L154.984 786.503 L154.29 784.803 L142.564 783.133 L135.562 784.864 L133.5 784.201 L131.496 784.984 L129.474 784.852 L127.496 784.015 L113.503 784.015 L111.527 784.843 L109.5 784.201 L108.5 784.799 L107.5 784.201 L106.5 784.799 L104.496 784.015 L100.474 784.147 L99.5 784.799 L97.4962 784.015 L92.5031 784.015 L90.4998 784.799 L89.46 784.163 L78.7604 786.767 L78.1495 787.477 L78.1489 789.526 L80.0243 791.499 M450.953 786.52 L450.953 786.52 L453.851 783.526 L453.531 781.166 L436.5 783 L433.474 782.852 L431.496 782.016 L429.473 782.148 L428.457 782.842 L411.543 781.158 L410.5 781.8 L409.457 781.158 L388.97 783.148 L388.235 783.665 L389.867 785.897 L390.455 785.982 L395.496 785.985 L397.5 785.201 L398.5 785.799 L399.5 785.201 L400.5 785.799 L401.5 785.201 L402.473 785.852 L405.496 785.985 L407.474 785.148 L411.5 785.001 L413.526 785.148 L415.503 785.985 L419.526 785.852 L420.542 785.159 L435.437 786.868 L438.503 786.015 L448.496 786.015 L450.505 786.802 M-115.041 786.523 L-115.041 786.523 L-113.149 784.526 L-113.031 783.5 L-113.497 782.02 L-114.5 781.201 L-115.5 781.799 L-116.473 781.157 L-117.527 781.157 L-119.504 781.985 L-127.5 781.999 L-131.527 781.157 L-132.471 781.842 L-133.563 781.867 L-153.437 779.134 L-155.5 779.799 L-157.504 779.015 L-162.526 779.147 L-163.5 779.799 L-164.5 779.201 L-166.5 779.969 L-168.5 779.201 L-169.5 779.799 L-171.5 779.031 L-173.474 779.852 L-175.497 779.984 L-178.5 779.031 L-180.474 779.852 L-183.493 779.986 L-195.458 778.16 L-196.473 778.843 L-197.527 778.843 L-199.503 778.015 L-203.526 778.148 L-204.474 778.852 L-206.5 778.999 L-212.497 778.985 L-214.5 778.201 L-215.474 778.853 L-217.5 778.998 L-219.526 778.852 L-221.5 778.031 L-223.5 778.799 L-225.504 778.015 L-230.561 778.133 L-233.865 779.108 L-244.285 780.797 L-245.851 782.474 L-245.969 783.5 L-245.528 784.843 L-243.5 784.998 L-241.474 784.853 L-240.5 784.201 L-239.527 784.843 L-237.5 784.201 L-236.46 784.837 L-227.5 783.001 L-221.504 783.015 L-219.526 783.852 L-217.5 783.999 L-204.503 783.985 L-202.458 783.158 L-185.493 784.986 L-180.504 784.985 L-178.5 784.201 L-176.497 784.985 L-168.5 784.999 L-166.474 784.852 L-164.497 784.015 L-154.507 784.014 L-144.541 785.839 L-143.526 785.148 L-141.507 785.015 L-129.542 786.84 L-128.528 786.157 L-126.5 786.799 L-125.5 786.201 L-123.497 786.985 L-120.474 786.852 L-118.5 786.031 L-116.528 786.842 "/></g><g><path fill="#000000" d="M449.959 1305.52 L449.959 1305.52 L450.843 1304.53 L450.217 1302.75 L441.093 1299.53 L436.135 1296.13 L437.75 1291.77 L438.842 1290.53 L438.682 1289.2 L437.133 1287.1 L435.471 1287.15 L432.286 1290.71 L430.712 1289.18 L427.143 1283.11 L425.471 1283.15 L424.497 1284.02 L424.016 1285.5 L424.138 1287.55 L429.759 1296.31 L424.81 1299.72 L424.135 1301.13 L426.446 1302.86 L427.506 1302.98 L429.526 1302.85 L431.474 1301.15 L434.526 1301.15 L436.823 1303.29 L442.441 1305.87 L448.496 1305.98 M418.797 1303.69 L418.797 1303.69 L421.841 1301.52 L421.246 1299.77 L416.537 1298.17 L415.466 1298.83 L411.307 1296.75 L415.506 1295.01 L418.554 1295.14 L421.472 1296.82 L422.851 1295.53 L422.851 1293.47 L419.526 1290.15 L414.503 1290.02 L412.527 1290.84 L411.171 1290.47 L412.954 1287.08 L417.554 1287.14 L420.445 1288.86 L421.98 1288.5 L422.851 1287.53 L422.477 1284.99 L417.554 1282.14 L412.439 1282.13 L406.497 1283.97 L403.496 1283.02 L385.503 1283.02 L384.019 1283.5 L383.149 1284.47 L383.149 1286.52 L386.472 1288.82 L388.474 1287.15 L391.524 1287.15 L392.32 1287.86 L395.094 1302.98 L396.53 1302.85 L398.851 1300.53 L398.852 1296.47 L398.015 1294.5 L398.078 1288.95 L401.44 1287.14 L402.562 1287.14 L406.9 1289.01 L405.249 1293.23 L404.158 1294.47 L404.158 1295.53 L407.684 1301.16 L413.446 1303.86 M382.83 1302.55 L382.83 1302.55 L382.851 1299.48 L382.189 1298.72 L379.555 1297.14 L377.497 1298.02 L377.016 1300.5 L378.019 1302.5 L380.5 1303 M359.96 1302.52 L359.96 1302.52 L365.851 1297.52 L365.851 1293.48 L362.203 1290.5 L363.133 1289.93 L364.855 1287.56 L364.682 1286.2 L363.133 1284.1 L361.472 1284.15 L357.148 1288.47 L357.148 1292.53 L359.799 1295.5 L358.225 1297.25 L354.149 1299.48 L354.017 1301.5 L354.472 1302.84 L358.496 1302.98 M324.496 1302.81 L324.496 1302.81 L327.751 1300.77 L332.246 1299.23 L335.5 1295.2 L337.869 1297.87 L338.983 1297.5 L340.286 1296.29 L342.076 1299.13 L344.446 1300.86 L347.554 1300.86 L353.224 1298.25 L355.851 1295.53 L355.842 1293.47 L353.441 1293.13 L346.533 1295.83 L345.289 1294.7 L352.882 1291.05 L352.874 1290.52 L350.526 1288.15 L347.503 1288.02 L344.471 1288.83 L344.017 1286.5 L344.471 1285.17 L346.473 1285.84 L348.5 1285.2 L350.474 1286.85 L352.526 1286.85 L353.851 1285.53 L353.898 1282.87 L350.526 1280.15 L349.503 1280.03 L337.655 1282.83 L336.018 1284.46 L336.157 1287.53 L337.5 1287.97 L339.505 1287.2 L339.984 1289.5 L339.477 1291.01 L336.73 1292.75 L335.031 1288.54 L332.177 1285.71 L323.558 1282.13 L321.474 1282.15 L319.794 1283.72 L318.129 1292.44 L318.102 1301.13 L320.472 1302.82 L322.5 1302.03 M300.96 1302.52 L300.96 1302.52 L303.473 1300.16 L306.527 1300.84 L308.842 1298.53 L308.687 1297.2 L307.151 1294.49 L309.672 1285.2 L307.548 1283.02 L305.859 1283.11 L304.494 1285.1 L302.131 1292.44 L302.015 1295.5 L302.835 1298.53 L300.474 1298.85 L299.246 1297.77 L294.511 1296.01 L288.868 1292.92 L287.138 1290.55 L287.014 1289.49 L287.148 1286.47 L287.985 1284.5 L287.897 1281.87 L285.527 1280.18 L285.023 1280.5 L283.746 1281.78 L281.148 1289.5 L282.768 1294.25 L285.81 1297.28 L292.552 1301.21 L297.439 1302.87 L299.496 1302.98 M263.737 1300.75 L263.737 1300.75 L272.216 1298.25 L274.898 1296.13 L274.862 1292.45 L273.285 1289.81 L272.225 1288.75 L268.809 1287.28 L267.178 1284.53 L270.446 1282.14 L271.5 1282.03 L272.802 1282.31 L276.472 1284.84 L277.527 1284.84 L278.851 1283.53 L278.852 1281.47 L277.912 1279.84 L276.224 1278.73 L272.559 1277.13 L269.441 1277.13 L264.069 1279.48 L261.149 1281.48 L261.134 1284.56 L262.75 1288.23 L267.69 1293.21 L258.845 1295.69 L258.149 1296.48 L258.149 1298.52 L261.446 1300.86 M-52.1698 1298.55 L-52.1698 1298.55 L-49.1308 1280.56 L-49.1482 1278.47 L-49.8423 1277.53 L-49.5275 1276.16 L-47.4415 1276.13 L-41.1183 1278.96 L-43.8657 1286.44 L-43.8515 1293.53 L-41.926 1296.13 L-39.5537 1297.86 L-35.4414 1297.87 L-31.7749 1296.25 L-27.7506 1292.23 L-26.1346 1288.56 L-26.1575 1286.47 L-28.5262 1286.15 L-32.1902 1288.71 L-35.4739 1291.85 L-36.4998 1291.97 L-37.8428 1291.53 L-37.9574 1286.05 L-31.539 1284.04 L-30.5006 1283.2 L-29.4712 1283.82 L-26.81 1282.28 L-25.135 1280.49 L-27.1951 1278.32 L-28.4995 1278.03 L-33.4415 1279.87 L-35.5215 1279.84 L-35.7045 1279.24 L-34.2884 1275.82 L-20.7607 1272.23 L-20.159 1271.52 L-20.4977 1270.02 L-22.4739 1268.15 L-24.5258 1268.15 L-26.5 1268.97 L-28.5277 1268.18 L-40.5022 1272.97 L-41.9819 1272.5 L-43.4726 1271.16 L-45.5 1271.8 L-46.4739 1271.15 L-49.5586 1271.13 L-53.2257 1272.69 L-58.772 1276.25 L-62.225 1277.75 L-62.8505 1278.48 L-62.8615 1280.55 L-61.1308 1282.87 L-54.5213 1279.18 L-54.1629 1279.48 L-54.1326 1282.56 L-56.9702 1295.5 L-56.5024 1296.98 L-54.5261 1298.85 M-97.0343 1298.51 L-97.0343 1298.51 L-95.1436 1295.55 L-95.8427 1293.53 L-95.2009 1291.5 L-95.8525 1290.53 L-95.9855 1287.51 L-95.6617 1286.17 L-94.6798 1284.99 L-92.2903 1289.18 L-89.19 1293.28 L-86.554 1294.86 L-85.5 1294.97 L-81.718 1293.19 L-80.0141 1288.49 L-80.0157 1277.5 L-80.4721 1276.16 L-83.5234 1276.15 L-84.2574 1276.79 L-86.793 1286.69 L-90.707 1278.82 L-93.0738 1275.87 L-96.4737 1273.15 L-99.1788 1273.12 L-101.869 1280.44 L-101.852 1283.53 L-101.201 1284.5 L-101.841 1285.54 L-100.196 1298.29 L-98.501 1298.97 M324.151 1297.83 L324.151 1297.83 L323.164 1297.53 L323.799 1295.5 L323.163 1294.46 L325.06 1288.08 L325.511 1288.11 L330.001 1290.5 L330.851 1291.47 L330.851 1293.53 L328.526 1295.85 L325.848 1296.1 M1.95994 1296.52 L1.95994 1296.52 L3.85105 1294.53 L3.86834 1292.44 L1.97196 1287.05 L-0.526184 1287.15 L-1.85143 1288.47 L-1.85255 1292.53 L-1.20072 1293.5 L-1.82233 1294.53 L-0.132622 1296.9 M84.7994 1295.68 L84.7994 1295.68 L86.8665 1293.51 L85.4727 1291.98 L77.8231 1288.29 L73.8098 1285.28 L71.1774 1282.47 L74.8619 1275.55 L74.5026 1273.02 L73.526 1272.15 L71.4762 1272.15 L68.7953 1275.97 L66.164 1271.12 L63.4722 1271.16 L63.0157 1272.5 L63.0139 1277.49 L64.8328 1283.46 L62.7113 1285.82 L60.1774 1290.47 L60.5018 1290.98 L61.4736 1291.85 L64.5263 1291.85 L68.5001 1288.2 L74.1335 1292.07 L76.5017 1294.8 L77.5287 1294.18 L80.4457 1295.86 M-71.0399 1295.52 L-71.0399 1295.52 L-67.707 1292.18 L-64.1379 1284.55 L-64.0144 1283.49 L-64.1343 1280.44 L-65.7506 1276.77 L-68.4739 1274.15 L-69.5 1274.03 L-70.9818 1274.5 L-75.2915 1278.82 L-77.1187 1283.13 L-78.8493 1291.48 L-76.144 1295.89 L-72.504 1295.98 M51.7977 1294.69 L51.7977 1294.69 L54.3094 1293.17 L55.8622 1290.55 L55.8428 1287.47 L53.4739 1287.15 L51.5263 1288.85 L47.4737 1288.85 L45.1486 1286.53 L45.1332 1282.79 L57.288 1280.2 L57.841 1279.52 L57.8421 1278.47 L55.5262 1276.15 L50.5034 1276.02 L48.5258 1276.85 L46.4722 1276.84 L46.1152 1274.84 L51.5 1272.15 L55.4413 1273.87 L58.5263 1273.85 L59.8229 1272.47 L58.3076 1269.83 L55.5541 1268.14 L47.4394 1268.13 L31.4935 1271.98 L29.4739 1271.85 L27.4965 1271.02 L22.4739 1271.15 L21.5259 1271.85 L18.8674 1272.1 L17.3291 1274.2 L17.502 1274.98 L19.4739 1276.85 L21.5258 1276.85 L23.4997 1276.03 L24.8428 1276.47 L24.8521 1279.53 L24.0152 1281.5 L24.0143 1288.49 L24.3117 1289.8 L26.4762 1292.85 L28.5261 1292.85 L29.8513 1291.53 L29.8521 1288.47 L29.0151 1286.5 L29.0144 1280.51 L30.7179 1276.81 L31.5018 1276.2 L32.5399 1276.84 L39.4666 1275.16 L39.9837 1277.5 L39.0151 1280.5 L39.0144 1286.49 L40.7152 1290.19 L43.8099 1293.28 L46.4458 1294.86 M-16.0416 1290.52 L-16.0416 1290.52 L-12.8099 1288.28 L-10.1486 1285.53 L-10.1378 1281.45 L-12.247 1278.23 L-13.76 1274.72 L-9.53148 1273.02 L-9.15736 1271.47 L-10.0741 1269.87 L-12.4463 1268.14 L-15.5263 1268.15 L-17.2848 1269.81 L-18.8623 1272.45 L-18.8622 1276.55 L-16.1381 1281.45 L-16.1385 1283.55 L-17.8693 1285.87 L-19.5283 1285.18 L-23.8903 1287.86 L-23.8494 1289.53 L-22.5263 1290.85 L-17.504 1290.98 M-73.4782 1289.79 L-73.4782 1289.79 L-73.5048 1289.2 M-72.8279 1288.55 L-72.8279 1288.55 L-72.8616 1284.45 L-71.2863 1282.29 L-70.149 1283.47 L-70.1349 1285.56 L-71.9592 1288.88 M127.797 1177.69 L127.797 1177.69 L133.851 1173.52 L133.852 1170.48 L133.305 1169.77 L137.468 1168.02 L137.969 1166.5 L137.503 1165.02 L136.526 1164.15 L135.503 1164.03 L129.561 1165.87 L125.856 1165.89 L123.287 1161.82 L121.869 1161.13 L118.75 1164.77 L117.028 1168.47 L114.133 1171.9 L107.446 1171.86 L105.102 1170.13 L105.017 1169.55 L105.134 1164.44 L107.707 1158.82 L108.842 1157.53 L108.502 1156.02 L106.502 1154.2 L105.718 1154.81 L102.813 1159.58 L100.254 1166.7 L98.4964 1166.02 L96.4739 1166.15 L94.4964 1166.98 L90.5036 1166.98 L89.1574 1166.53 L89.1348 1164.44 L90.9007 1161.03 L92.8563 1159.13 L94.5004 1159.8 L96.842 1157.53 L96.5025 1156.02 L95.5262 1155.15 L92.4457 1155.14 L89.8099 1156.72 L86.4999 1159.8 L85.2244 1158.75 L77.554 1155.14 L76.4943 1155.01 L67.4414 1155.13 L63.775 1156.75 L63.1491 1157.48 L63.1486 1160.53 L64.4739 1161.85 L66.5257 1161.84 L67.0728 1160.87 L69.4464 1159.14 L71.5212 1159.16 L71.8328 1159.53 L70.1324 1164.44 L70.0143 1172.49 L70.3117 1173.8 L72.4749 1176.84 L73.9799 1176.5 L74.8513 1175.53 L74.8521 1172.47 L74.0151 1170.5 L74.1324 1165.44 L75.7709 1160.75 L77.4977 1160.03 L78.8022 1160.31 L81.8509 1162.48 L81.852 1166.53 L81.0151 1168.5 L81.0152 1173.5 L81.4973 1174.98 L82.4726 1175.84 L84.2099 1175.27 L85.9907 1169.2 L87.4758 1170.85 L94.4938 1170.99 L99.2249 1169.25 L100.296 1168.29 L102.75 1173.22 L104.741 1175.22 L111.5 1176.97 L116.466 1175.17 L117.5 1175.8 L118.503 1175.2 L119.072 1176.13 L121.446 1177.86 M-101.231 1177.72 L-101.231 1177.72 L-92.8163 1173.29 L-89.5274 1170.16 L-88.1995 1170.49 L-88.8226 1171.53 L-86.144 1175.89 L-83.4395 1175.87 L-78.7542 1174.23 L-72.5 1169.2 L-70.5 1170.8 L-68.7149 1169.19 L-67.1579 1166.69 L-61.5235 1164.12 L-59.1347 1167.44 L-59.1479 1170.53 L-59.8427 1171.47 L-59.8427 1172.53 L-58.9258 1174.13 L-56.5306 1175.82 L-55.7928 1175.27 L-54.2087 1168.31 L-53.5237 1168.84 L-52.0188 1168.5 L-50.7505 1167.23 L-49.2495 1163.77 L-47.7091 1162.29 L-45.2883 1166.18 L-43.5263 1167.85 L-39.8671 1167.9 L-36.7663 1164.3 L-35.0306 1168.46 L-33.529 1169.84 L-32.4455 1169.86 L-30.1024 1168.13 L-30.0186 1167.55 L-30.1017 1165.85 L-31.9821 1163.54 L-31.8687 1161.44 L-30.1313 1155.56 L-30.1572 1150.47 L-32.5259 1150.15 L-34.1573 1151.09 L-38.7136 1160.19 L-41.5 1163.8 L-43.3433 1161.13 L-45.9466 1152.44 L-46.8214 1151.15 L-49.1335 1152.07 L-51.2486 1154.78 L-53.9517 1160.88 L-54.4798 1160.87 L-55.9956 1159.97 L-58.7467 1152.78 L-61.4739 1150.15 L-63.526 1150.15 L-65.1447 1151.08 L-69.1476 1156.59 L-72.0483 1165.04 L-78.1902 1168.72 L-79.7749 1170.25 L-83.4406 1171.86 L-84.8425 1171.53 L-84.9848 1169.51 L-83.2796 1164.81 L-81.3987 1163.8 L-72.7566 1161.23 L-72.159 1160.52 L-72.4974 1159.02 L-73.4737 1158.15 L-76.4965 1158.02 L-79.525 1158.83 L-79.0162 1155.5 L-79.6945 1153.77 L-75.5604 1152.13 L-73.5038 1152.02 L-72.0181 1152.5 L-70.5275 1153.84 L-69.4725 1153.84 L-68.1491 1152.53 L-68.149 1150.47 L-70.4737 1148.15 L-72.4998 1148 L-75.5606 1148.13 L-84.5061 1150.99 L-88.5261 1150.85 L-90.5035 1150.02 L-95.5541 1150.14 L-104.162 1154.69 L-106.799 1158.5 L-105.805 1159.7 L-103.833 1177.03 L-102.543 1177.97 M270.123 1175.9 L270.123 1175.9 L272.476 1173.15 L275.526 1173.15 L276.5 1173.8 L276.975 1173.5 L278.81 1171.72 L284.165 1168.31 L285.862 1165.55 L285.851 1160.48 L285.183 1159.71 L278.817 1156.29 L278.204 1155.5 L284.286 1150.29 L285.809 1152.28 L288.92 1153.95 L288.864 1155.56 L287.134 1159.44 L287.014 1165.49 L287.312 1166.8 L289.502 1170 L290.754 1171.23 L295.438 1172.86 L296.561 1172.86 L300.228 1171.25 L303.19 1169.28 L304.851 1167.53 L304.528 1165.16 L301.474 1165.15 L297.554 1167.86 L294.503 1167.98 L293.019 1167.5 L292.148 1166.53 L292.015 1165.5 L292.162 1160.48 L293.528 1160.82 L298.018 1158.91 L306.893 1156.54 L304.526 1154.15 L303.496 1154.02 L298.441 1154.13 L293.962 1155.89 L292.171 1152.53 L293.503 1152.02 L297.496 1152.02 L299.474 1152.85 L304.496 1152.98 L305.981 1152.5 L306.863 1151.49 L306.852 1150.83 L299.493 1148.01 L288.503 1148.02 L286.494 1148.8 L286.157 1147.47 L286.798 1146.5 L286.189 1145.72 L283.554 1144.14 L281.5 1144 L277.441 1144.13 L270.774 1146.67 L262.816 1150.71 L262.149 1151.48 L262.149 1153.53 L263.471 1154.84 L264.802 1154.69 L267.478 1153.18 L267.837 1153.48 L267.985 1157.5 L267.031 1160.5 L267.799 1162.5 L267.015 1164.5 L267.014 1172.49 L267.317 1173.8 L268.87 1175.89 M50.9585 1174.52 L50.9585 1174.52 L51.802 1173.5 L51.0162 1171.5 L51.4711 1169.17 L54.5035 1169.98 L59.4964 1169.98 L60.9806 1169.5 L61.8509 1168.53 L61.8509 1166.47 L60.5262 1165.15 L57.4739 1165.15 L55.5 1165.97 L54.0213 1165.5 L53.2893 1164.7 L58.2245 1162.25 L60.8416 1159.53 L60.6869 1158.2 L59.3142 1155.84 L55.5586 1154.13 L47.4737 1154.15 L46.1486 1155.47 L46.0162 1156.5 L46.1475 1158.53 L46.8003 1159.51 L45.4963 1159.98 L42.4767 1159.85 L41.986 1159.47 L39.156 1154.12 L37.4717 1154.15 L35.5274 1155.84 L32.4725 1155.16 L30.1484 1157.47 L29.9206 1160.05 L24.8234 1162.71 L24.1587 1163.47 L24.4974 1164.98 L25.4725 1165.84 L27.5057 1165.2 L27.8301 1165.48 L27.5023 1166.98 L26.4579 1167.84 L9.59888 1165.85 L8.10126 1165.14 L13.5024 1159.98 L13.9691 1158.5 L12.9732 1156 L8.56036 1154.13 L5.47393 1154.15 L4.52719 1154.84 L2.50163 1154.2 L0.130997 1156.87 L-2.52747 1156.16 L-5.47373 1158.85 L-16.524 1158.84 L-16.5009 1158.03 L-14.239 1154.76 L-3.02369 1152.91 L-3.47216 1150.16 L-11.5606 1150.13 L-21.9577 1153.05 L-21.8521 1156.53 L-21.158 1157.47 L-21.1372 1158.56 L-22.8676 1163.44 L-22.8515 1169.53 L-21.1901 1171.28 L-18.5542 1172.86 L-15.4414 1172.87 L-11.74 1171.32 L-7.81563 1169.29 L-6.14906 1167.53 L-6.15755 1165.47 L-7.50022 1165.03 L-15.4461 1168.86 L-18.5279 1168.84 L-18.9843 1167.5 L-18.9206 1164.95 L-13.5538 1162.14 L-12.4979 1162.03 L-9.49653 1162.98 L-5.47725 1162.85 L-4.77995 1162.31 L-1.89957 1172.13 L0.445518 1173.86 L2.21999 1173.26 L4.03416 1168.09 L5.75418 1169.23 L11.5064 1170.99 L21.4965 1170.98 L23.4742 1170.15 L25.5276 1170.16 L25.8423 1171.53 L25.1483 1172.47 L25.1575 1174.53 L26.5005 1174.98 L28.143 1174.89 L34.7171 1163.81 L35.4748 1163.16 L36.5274 1163.16 L37.8513 1164.47 L37.9847 1165.5 L37.9848 1168.5 L37.1483 1170.47 L37.149 1172.53 L38.4736 1173.85 L41.5278 1173.84 L41.9838 1171.5 L41.1573 1168.47 L41.8522 1167.53 L42.0793 1164.95 L47.479 1162.18 L47.9837 1164.5 L47.0151 1167.5 L47.1486 1173.53 L48.4739 1174.85 M125.574 1173.85 L125.574 1173.85 L123.478 1173.85 L122.476 1172.96 L123.753 1171.73 L127.441 1170.13 L129.496 1170.02 L130.799 1170.49 L130.183 1171.29 M-96.7905 1170.52 L-96.7905 1170.52 L-96.1973 1170.5 M325.966 1169.51 L325.966 1169.51 L327.856 1166.55 L327.201 1164.5 L329.288 1162.18 L332.712 1156.3 L333.225 1156.75 L335.746 1164.22 L337.472 1165.84 L338.981 1165.5 L340.285 1164.19 L344.23 1158.31 L346.834 1163.88 L349.843 1163.53 L349.867 1160.44 L346.917 1146.03 L345.47 1146.15 L343.751 1147.78 L340.247 1156.23 L338.464 1158.23 L335.171 1149.53 L335.799 1148.5 L334.526 1147.15 L331.867 1147.1 L329.713 1149.81 L326.289 1155.71 L324.855 1154.92 L321.246 1149.77 L316.56 1148.13 L314.474 1148.15 L312.866 1149.07 L311.012 1151.47 L310.052 1152.01 L308.014 1159.51 L308.138 1164.55 L309.717 1167.19 L310.475 1167.84 L311.527 1167.84 L312.851 1166.53 L312.852 1164.47 L312.168 1163.46 L313.769 1159.31 L314.477 1159.85 L316.5 1160 L318.526 1159.85 L319.5 1159.2 L320.497 1159.8 L321.219 1159.31 L322.864 1164.44 L322.502 1165.98 L321.149 1167.47 L321.157 1169.53 L323.5 1170 M26.5218 1169.79 L26.5218 1169.79 L26.4952 1169.2 M-95.4557 1169.81 L-95.4557 1169.81 L-97.5042 1169.02 L-99.5262 1169.15 L-100.506 1169.8 L-100.838 1169.52 L-100.984 1164.5 L-100.47 1163.17 L-95.5548 1164.8 L-92.2912 1166.71 L-93.0741 1168.13 M376.965 1168.51 L376.965 1168.51 L378.868 1166.13 L381.503 1166.98 L389.494 1166.99 L394.225 1165.25 L394.841 1164.52 L394.295 1162.81 L380.059 1160.9 L380.811 1159.72 L383.308 1158.17 L385.851 1154.53 L385.985 1153.5 L385.892 1150.86 L381.554 1148.14 L377.474 1148.15 L376.5 1148.8 L375.527 1148.16 L373.995 1148.52 L372.952 1150.31 L371.135 1157.44 L373.697 1167.14 L375.453 1168.97 M-88.4782 1168.79 L-88.4782 1168.79 L-88.5048 1168.2 M364.797 1167.69 L364.797 1167.69 L367.471 1166.02 L369.502 1163.98 L369.842 1161.47 L367.474 1161.15 L363.554 1163.86 L358.867 1163.9 L357.138 1161.55 L357.102 1158.87 L359.721 1156.79 L367.465 1155.02 L367.965 1153.07 L360.009 1150.58 L360.017 1149.5 L360.53 1148.17 L365.246 1149.77 L366.472 1150.84 L367.529 1150.83 L367.984 1149.5 L367.881 1146.83 L361.56 1144.13 L357.474 1144.15 L356.527 1144.84 L353.473 1144.16 L351.867 1145.07 L350.077 1147.93 L356.745 1149.75 L354.793 1153.55 L353.132 1158.44 L353.138 1162.55 L354.715 1165.19 L357.474 1167.85 M276.57 1167.84 L276.57 1167.84 L275.197 1167.51 L276.851 1165.53 L276.528 1163.16 L274.474 1163.15 L271.975 1165.5 L271.162 1165.52 L271.131 1162.44 L272.777 1157.31 L274.81 1159.28 L277.772 1161.25 L281.225 1162.75 L281.797 1163.5 L279.19 1166.28 M122.522 1167.79 L122.522 1167.79 L122.495 1167.2 M124.522 1166.79 L124.522 1166.79 L124.495 1166.2 M-55.4732 1166.79 L-55.4732 1166.79 L-55.9661 1165.51 L-55.5 1164.2 L-55.0326 1165.5 M115.953 1163.52 L115.953 1163.52 L118.794 1160.74 L121.006 1159.94 L131.507 1158.01 L137.528 1158.84 L137.984 1157.5 L137.898 1154.87 L135.554 1153.14 L133.507 1153.01 L117.862 1156.66 L114.976 1158.53 L113.177 1161.47 L115.024 1163.5 M4.54498 1162.83 L4.54498 1162.83 L3.15678 1162.53 L3.10245 1159.87 L5.44627 1158.14 L8.52393 1158.16 L8.49928 1158.98 M-87.4502 1161.84 L-87.4502 1161.84 L-91.5264 1161.85 L-92.7086 1160.71 L-89.9995 1158.5 L-88.9532 1156.96 L-83.5547 1154.14 L-82.4757 1154.17 L-82.3247 1154.79 L-83.717 1157.19 L-85.7151 1160.19 M48.5267 1160.79 L48.5267 1160.79 L48.1681 1159.48 L48.5004 1159.2 L48.8322 1160.53 M-63.4261 1160.85 L-63.4261 1160.85 L-65.5189 1160.84 L-65.8227 1160.48 L-63.2861 1155.82 L-62.4979 1155.2 L-61.1486 1156.47 L-61.1025 1159.13 M54.545 1159.83 L54.545 1159.83 L53.1644 1159.53 L53.4724 1158.16 L55.8005 1158.49 M-99.4777 1159.79 L-99.4777 1159.79 L-99.8953 1157.87 L-97.2279 1155.75 L-93.5593 1154.14 L-92.1994 1154.49 L-93.8163 1156.29 M377.545 1156.83 L377.545 1156.83 L376.157 1156.53 L376.157 1153.47 L377.504 1153.02 L380.524 1153.16 L380.499 1153.98 M313.557 1156.82 L313.557 1156.82 L313.156 1155.48 L315.87 1152.14 L319.189 1153.72 L319.796 1154.5 L319.259 1155.22 M272.527 1155.79 L272.527 1155.79 L272.168 1154.48 L272.5 1154.2 L272.832 1155.53 M359.522 1152.79 L359.522 1152.79 L359.495 1152.2 M273.522 1152.79 L273.522 1152.79 L273.156 1151.48 L273.498 1151.02 L274.472 1150.16 L275.525 1150.17 L275.499 1150.98 M285.522 1149.79 L285.522 1149.79 L285.495 1149.2 M277.541 1149.82 L277.541 1149.82 L276.195 1149.5 L277.524 1149.17 "/></g><g><path fill="#909090" d="M322.959 1272.52 L322.959 1272.52 L323.852 1271.53 L323.998 1269.5 L323.852 1267.47 L323.157 1266.53 L323.829 1264.47 L322.014 1259.49 L322.015 1238.5 L322.852 1236.53 L323 1233.5 L322.985 1223.5 L322.031 1220.5 L322.841 1218.46 L320.2 1193.71 L318.472 1192.18 L316.102 1193.87 L316.017 1194.45 L316.129 1199.56 L317.84 1210.46 L317.158 1211.54 L318.868 1226.44 L318.201 1228.5 L318.838 1229.54 L317.03 1238.5 L317.799 1240.5 L317.201 1241.5 L317.799 1242.5 L317.015 1244.5 L317.014 1259.49 L318.839 1269.46 L318.178 1270.53 L319.867 1272.9 M-30.1563 1248.54 L-30.1563 1248.54 L-29.0298 1245.5 L-30.8379 1236.54 L-30.0308 1234.5 L-30.7992 1232.5 L-30.157 1231.53 L-30.8426 1228.47 L-30.1479 1227.53 L-30.0162 1225.5 L-30.8427 1222.47 L-30.1573 1221.53 L-30.7992 1219.5 L-30.0152 1217.5 L-30.0176 1194.45 L-32.4724 1192.18 L-34.2494 1193.77 L-35.8606 1197.44 L-35.2007 1199.5 L-35.7993 1200.5 L-35.1475 1201.47 L-35.002 1203.5 L-35.1475 1205.53 L-35.7993 1206.5 L-35.2006 1207.5 L-35.7994 1208.5 L-35.2007 1209.5 L-35.843 1210.47 L-35.843 1211.53 L-35.2009 1212.5 L-35.9692 1214.5 L-35.1574 1217.53 L-35.9848 1219.5 L-35.9862 1236.49 L-34.2037 1247.28 L-32.5261 1248.85 M308.96 1133.52 L308.96 1133.52 L310.851 1131.53 L310.986 1127.51 L308.112 1114.11 L304.217 1102.54 L298.318 1087.75 L292.289 1076.82 L287 1070.5 L282.19 1065.72 L279.528 1064.02 L277.19 1061.72 L271.81 1058.28 L270.184 1056.71 L255.226 1048.67 L242.458 1043.78 L235.58 1041.74 L206.537 1034.17 L205.466 1034.83 L191.537 1031.17 L190.53 1031.84 L189.437 1031.87 L181.54 1030.16 L180.458 1030.84 L157.497 1028.03 L154.437 1028.87 L128.372 1024.18 L124.494 1023.01 L121.474 1023.15 L120.5 1023.8 L118.5 1023.03 L116.458 1023.84 L104.563 1022.13 L101.496 1022.98 L99.4736 1022.85 L98.4577 1022.16 L83.4967 1023.97 L81.5272 1023.16 L79.5 1023.8 L77.5 1023.03 L75.526 1023.85 L73.5037 1023.98 L71.4596 1023.16 L48.3671 1025.95 L40.7406 1027.78 L40.1491 1028.48 L40.1571 1032.53 L42.4942 1032.98 L51.4612 1030.16 L52.4725 1030.84 L55.5272 1030.16 L56.4705 1030.84 L57.5629 1030.87 L66.5066 1029.01 L72.4965 1029.02 L74.5 1029.8 L75.4738 1029.15 L77.4963 1029.02 L79.5398 1029.84 L87.5066 1028.01 L113.496 1028.02 L116.504 1028.98 L118.526 1028.85 L119.5 1028.2 L120.474 1028.85 L122.526 1028.85 L123.539 1028.17 L144.794 1032.08 L159.437 1033.87 L163.526 1033.85 L164.534 1033.17 L168.466 1034.83 L169.474 1034.15 L172.493 1034.01 L188.648 1035.91 L195.447 1037.86 L198.526 1037.85 L199.527 1037.18 L201.288 1038.05 L217.268 1042.1 L225.9 1043.86 L239.597 1047.85 L244.282 1049.68 L260.178 1056.71 L274.19 1065.72 L282 1072.5 L287.288 1078.82 L296.325 1095.77 L300.227 1105.75 L303.387 1115.82 L307.058 1133.96 M-32.1563 1116.54 L-32.1563 1116.54 L-31.1673 1114.46 L-32.8629 1109.56 L-32.1584 1107.46 L-33.8416 1091.54 L-33.0151 1089.5 L-33.0157 1075.5 L-33.4723 1074.16 L-34.5003 1074.03 L-36.2829 1074.81 L-37.8623 1077.45 L-37.9856 1078.51 L-37.9849 1109.5 L-37.2007 1111.5 L-37.8326 1112.54 L-35.9997 1116.94 L-33.5043 1116.98 "/></g><g><path fill="#000000" d="M-1.17035 1460.55 L-1.17035 1460.55 L-1.13776 1455.45 L-2.8623 1452.55 L-2.84283 1446.47 L-1.49977 1446.03 L0.500565 1446.8 L6.18364 1443.29 L8.2849 1441.19 L10.8514 1437.53 L10.8622 1432.45 L9.28476 1429.81 L7.52628 1428.15 L-0.526421 1428.15 L-4.25158 1430.77 L-6.86539 1441.44 L-6.98568 1453.49 L-4.24737 1460.22 L-2.50087 1460.97 M446.843 1457.54 L446.843 1457.54 L447.985 1454.5 L448.122 1445.82 L459.241 1442.23 L459.821 1441.47 L458.133 1439.1 L453.503 1439.02 L450.496 1439.98 L448.157 1439.53 L448.132 1437.44 L450.028 1432.05 L453.526 1432.15 L455.5 1432.97 L456.981 1432.5 L457.851 1431.53 L457.85 1429.48 L454.556 1427.14 L446.29 1428.82 L441.822 1430.71 L441.149 1431.48 L441.149 1433.52 L443.898 1435.87 L443.984 1438.56 L440.149 1441.48 L440.149 1443.53 L442.285 1445.81 L443.862 1448.45 L443.852 1450.53 L443.015 1452.5 L443.148 1455.53 L445.472 1457.84 M269.954 1457.55 L269.954 1457.55 L271.523 1457.15 L272.539 1457.84 L278.579 1456.11 L281.132 1454.92 L282.862 1452.55 L282.852 1449.47 L281.926 1447.87 L276.81 1444.28 L274.158 1441.53 L274.313 1440.2 L275.838 1437.69 L284.467 1434.01 L284.202 1432.5 L284.708 1431.72 L282.488 1430.16 L272.822 1433.71 L269.148 1438.47 L269.138 1442.55 L270.692 1445.17 L277.703 1450.72 L274.502 1452.24 L268.74 1453.78 L268.159 1454.47 L268.144 1455.55 M34.4833 1456.79 L34.4833 1456.79 L35.2183 1456.25 L36.8351 1450.54 L36.1575 1449.53 L36.1394 1448.44 L37.7188 1444.81 L42.7719 1441.75 L46.225 1440.25 L46.9685 1438.5 L46.5278 1437.16 L42.4736 1437.15 L40.19 1439.28 L37.0101 1440.9 L34.2889 1435.71 L39.4715 1431.15 L41.1469 1431.1 L43.5013 1432.97 L44.1306 1432.89 L45.8555 1430.56 L45.8555 1429.44 L44.1327 1427.1 L39.4414 1427.13 L35.7749 1428.75 L32.1901 1432.28 L28.7133 1434.71 L27.1628 1432.69 L22.5541 1430.14 L17.4737 1430.15 L15.7151 1431.81 L13.1485 1435.47 L13.1025 1455.13 L15.5001 1456.84 L23.2244 1453.25 L26.0738 1449.87 L30.4997 1446.2 L31.9163 1446.99 L33.9817 1456.47 M302.769 1455.72 L302.769 1455.72 L306.321 1454.15 L307.713 1452.29 L309.472 1453.85 L311.132 1453.9 L312.822 1451.53 L312.201 1450.5 L312.985 1448.5 L312.843 1433.47 L309.867 1433.1 L308.138 1435.45 L308.015 1441.5 L308.838 1443.54 L307.209 1450.69 L306.522 1450.15 L304.5 1450 L302.474 1450.15 L300.496 1450.98 L293.446 1450.86 L291.102 1449.13 L291.017 1448.55 L291.131 1443.44 L292.986 1436.49 L292.851 1431.47 L291.528 1430.15 L289.797 1430.13 L286.133 1444.44 L286.138 1449.55 L288.529 1453.02 L292.473 1455.85 M-30.04 1455.52 L-30.04 1455.52 L-22.1771 1447.47 L-26.8422 1440.53 L-26.4767 1438.99 L-23.6923 1437.17 L-22.1436 1434.56 L-22.4974 1433.02 L-23.4717 1432.15 L-25.1335 1432.1 L-26.8337 1434.31 L-29.4723 1435.98 L-30.8515 1437.47 L-30.8515 1441.53 L-28.7152 1443.81 L-27.1436 1446.44 L-27.4976 1447.98 L-32.8514 1452.47 L-32.8428 1455.53 L-31.5003 1455.97 M406.969 1454.52 L406.969 1454.52 L408.737 1443.78 L413.444 1442.21 L417.184 1440.29 L418.223 1439.26 L420.034 1434.09 L421.799 1435.5 L420.75 1436.77 L419.134 1440.44 L419.014 1449.49 L419.312 1450.8 L420.995 1453.47 L421.795 1453.68 L424.727 1451.79 L431.694 1450.08 L437.184 1447.29 L438.851 1445.53 L438.867 1443.44 L436.21 1434.58 L434.288 1430.82 L432.246 1428.77 L426.494 1427.01 L422.503 1427.02 L420.98 1427.53 L419.223 1432.69 L417.225 1430.75 L413.559 1429.13 L401.503 1429.02 L400.018 1429.5 L398.158 1431.47 L398.144 1432.55 L400.101 1435.03 L401.865 1439.13 L398.178 1442.53 L399.867 1444.9 L402.133 1445.1 L403.862 1447.45 L403.984 1449.5 L403.148 1451.47 L403.149 1453.53 L404.474 1454.85 M-11.5172 1454.79 L-11.5172 1454.79 L-9.20071 1452.5 L-11.2531 1450.22 L-12.9537 1447.08 L-14.5302 1447.16 L-14.9842 1448.5 L-14.8514 1451.53 M-53.5429 1453.83 L-53.5429 1453.83 L-52.0236 1453.51 L-51.1486 1452.53 L-51.0152 1449.5 L-51.8521 1447.53 L-51.9838 1445.5 L-51.1479 1443.53 L-51.0162 1441.5 L-51.8421 1438.47 L-50.7084 1437.29 L-48.9369 1439.02 L-47.1675 1443.46 L-48.074 1445.15 L-49.8967 1446.85 L-49.8495 1448.53 L-48.974 1449.5 L-46.4731 1449.17 L-45.9274 1450.13 L-42.5264 1452.85 L-40.4999 1453 L-38.4414 1452.87 L-34.775 1451.25 L-32.9771 1449.47 L-31.1771 1446.53 L-32.0792 1444.84 L-33.7107 1443.29 L-33.1778 1442.47 L-34.7173 1439.81 L-35.4734 1439.16 L-36.5549 1439.14 L-41.445 1441.86 L-42.5301 1441.83 L-42.9843 1440.5 L-42.9849 1437.5 L-41.9259 1434.87 L-39.5546 1433.14 L-37.5271 1433.84 L-35.7473 1433.3 L-33.5594 1435.97 L-32.471 1435.85 L-31.1491 1434.53 L-31.0309 1433.5 L-32.0741 1430.87 L-34.4463 1429.14 L-42.4944 1429.01 L-47.5058 1430.98 L-49.5261 1430.85 L-51.5035 1430.02 L-54.5587 1430.13 L-60.4726 1432.82 L-64.446 1430.14 L-66.554 1430.14 L-69.3078 1431.83 L-73.8622 1439.45 L-73.8657 1448.56 L-72.2471 1452.22 L-70.4966 1452.98 L-66.4737 1452.85 L-62.8665 1449.93 L-60.7128 1447.19 L-58.1378 1442.55 L-58.1475 1438.47 L-58.7992 1437.5 L-57.1079 1436.06 L-54.3229 1453.14 M333.958 1452.52 L333.958 1452.52 L337.19 1450.28 L341.851 1445.53 L341.862 1437.45 L339.289 1432.82 L337.19 1430.72 L334.554 1429.14 L323.476 1429.15 L320.158 1433.47 L320.985 1436.5 L321.102 1451.13 L323.445 1452.86 L325.5 1452.2 L327.503 1452.98 L332.496 1452.98 M390.958 1451.52 L390.958 1451.52 L391.852 1450.53 L391.851 1447.47 L390.528 1446.15 L388.867 1446.1 L387.144 1448.45 L387.158 1449.53 L389.472 1451.84 M371.959 1451.52 L371.959 1451.52 L373.074 1449.87 L378.851 1445.52 L378.851 1441.47 L375.291 1436.71 L377.307 1435.17 L378.862 1432.55 L378.851 1430.47 L377.526 1429.15 L374.474 1429.15 L372.866 1430.07 L370.148 1433.47 L370.138 1437.55 L372.851 1441.47 L372.85 1443.52 L367.816 1446.71 L366.158 1448.47 L366.318 1449.8 L367.867 1451.9 L370.496 1451.98 M353.752 1451.73 L353.752 1451.73 L358.489 1450.01 L361.19 1448.28 L361.851 1447.52 L361.842 1444.47 L360.44 1444.14 L353.534 1446.83 L351.867 1445.93 L350.13 1443.53 L350.152 1442.82 L356.459 1440.69 L364.275 1439.21 L364.841 1438.52 L364.841 1437.48 L361.554 1435.14 L358.503 1435.02 L356.526 1435.85 L353.953 1435.92 L352.18 1432.71 L349.307 1431.25 L353.441 1429.13 L356.496 1429.02 L357.982 1429.5 L360.867 1432.9 L362.528 1432.85 L363.851 1431.53 L363.861 1429.45 L360.145 1425.1 L351.446 1425.14 L348.81 1426.72 L346.135 1429.51 L348.798 1432.5 L347.748 1433.78 L345.134 1440.44 L345.134 1443.56 L347.707 1449.18 L348.535 1450.03 L352.439 1451.86 M17.1765 1450.54 L17.1765 1450.54 L17.1485 1436.47 L19.4737 1434.15 L22.5263 1434.15 L25.2848 1436.81 L26.8622 1439.45 L26.8514 1443.53 L21.2251 1449.25 L17.5232 1450.83 M-40.9578 1448.52 L-40.9578 1448.52 L-41.8022 1447.5 L-41.4992 1447.02 L-37.5542 1444.14 L-35.5039 1444.02 L-34.1995 1444.49 L-36.81 1447.28 L-39.4448 1448.86 M-67.455 1448.83 L-67.455 1448.83 L-68.9764 1448.51 L-69.8514 1447.53 L-69.8653 1440.44 L-68.0421 1437.11 L-66.5001 1437.8 L-65.4712 1437.18 L-62.1491 1439.48 L-62.1378 1442.55 L-63.7152 1445.19 M-89.1563 1448.54 L-89.1563 1448.54 L-88.0152 1445.5 L-88.0152 1440.5 L-88.8422 1438.53 L-88.5052 1437.2 L-84.4994 1441.02 L-83.9119 1442.16 L-82.2242 1443.27 L-78.5337 1444.83 L-76.1486 1442.53 L-76.014 1433.51 L-77.7773 1427.68 L-76.0288 1425.55 L-76.4973 1424.02 L-77.4738 1423.15 L-80.1325 1423.1 L-81.847 1425.51 L-80.0139 1432.51 L-80.0161 1438.5 L-80.4949 1439.8 L-86.2905 1434.19 L-89.6713 1429.8 L-89.0309 1427.5 L-90.0195 1425.5 L-92.0462 1425.08 L-93.8653 1428.44 L-93.8676 1443.56 L-92.229 1448.25 L-90.5007 1448.97 M331.545 1447.83 L331.545 1447.83 L330.022 1447.51 L326.794 1444.28 L325.134 1435.56 L325.497 1434.02 L326.474 1433.15 L330.559 1433.13 L334.225 1434.75 L336.862 1438.45 L336.851 1443.53 L335.19 1445.28 M424.177 1446.54 L424.177 1446.54 L424.015 1441.5 L424.852 1439.53 L424.998 1437.5 L424.852 1435.47 L424.031 1433.5 L424.497 1432.02 L425.499 1431.2 L426.474 1431.85 L429.142 1432.11 L431.323 1435.78 L433.86 1443.14 L430.587 1445.13 L424.528 1446.84 M31.5223 1442.79 L31.5223 1442.79 L31.0178 1441.5 L31.2665 1437.3 L32.8324 1441.46 M0.532349 1441.82 L0.532349 1441.82 L-1.86375 1440.13 L-1.87186 1439.48 L0.771507 1432.75 L1.47701 1432.15 L4.5239 1432.15 L6.82288 1435.47 L4.02434 1439.47 M408.578 1438.85 L408.578 1438.85 L406.157 1438.53 L406.016 1435.5 L406.472 1434.16 L412.496 1434.02 L413.841 1434.47 L413.885 1436.16 M-50.4782 1435.79 L-50.4782 1435.79 L-50.5048 1435.2 M444.522 1434.79 L444.522 1434.79 L444.495 1434.2 "/></g><g><path fill="#909090" d="M327.501 1412.85 L327.501 1412.85 L328.851 1411.53 L328.985 1410.5 L328.852 1407.47 L328.015 1405.5 L328.147 1402.47 L328.799 1401.5 L328.147 1400.53 L328.014 1395.51 L330.837 1381.54 L330.156 1380.46 L331.843 1345.54 L331.147 1344.53 L331 1340.5 L331.148 1337.47 L331.985 1335.5 L331.851 1332.47 L330.528 1331.15 L329.453 1331.03 L327.54 1332.99 L326.177 1335.47 L326.985 1337.5 L326.985 1374.5 L326.157 1376.47 L326.799 1378.5 L326.2 1379.5 L326.839 1380.54 L324.014 1397.51 L324.131 1406.56 L326.047 1412.96 M-37.1578 1411.54 L-37.1578 1411.54 L-35.138 1407.55 L-35.0302 1406.5 L-35.8427 1404.53 L-35.2009 1402.5 L-35.8525 1401.53 L-35.9862 1398.51 L-31.1579 1338.54 L-31.7994 1337.5 L-31.0152 1335.5 L-31.1486 1324.47 L-32.4739 1323.15 L-33.5002 1323.03 L-35.1908 1323.7 L-37.8414 1356.46 L-37.1662 1357.54 L-37.8764 1360.4 L-39.9863 1393.51 L-39.8514 1410.53 L-38.5278 1411.84 "/></g><g><path fill="#000000" d="M-37.0334 676.529 L-37.0334 676.529 L-36.0402 675.995 L-33.9561 670.043 L-31.4415 670.134 L-27.5337 671.829 L-26.1491 670.526 L-26.4977 668.018 L-31.7052 664.289 L-26.8164 661.289 L-25.158 659.527 L-25.4976 658.019 L-27.5001 656.201 L-33.2692 659.748 L-35.4751 655.151 L-37.2021 655.131 L-37.9325 656.201 L-39.8704 665.438 L-39.9857 672.494 L-38.2821 676.189 L-37.492 676.802 M-58.5176 675.791 L-58.5176 675.791 L-56.8668 674.925 L-54.1836 671.711 L-49.5263 669.129 L-47.529 671.023 L-45.143 674.891 L-43.4717 674.849 L-42.1486 673.526 L-42.1324 669.439 L-46.5034 656.043 L-48.4769 652.15 L-50.5261 652.149 L-56.2315 656.755 L-60.8654 671.442 L-60.8511 673.526 M-64.0418 675.523 L-64.0418 675.523 L-63.1481 674.531 L-63.0151 673.496 L-63.0152 665.503 L-63.7991 663.5 L-63.1576 662.53 L-63.1333 661.437 L-65.0481 651.094 L-65.6867 649.852 L-66.476 649.149 L-69.5263 649.149 L-72.2887 651.816 L-74.7113 656.184 L-76.5077 657.864 L-77.1546 657.856 L-81.5313 649.023 L-83.4527 647.029 L-84.5283 647.151 L-86.2507 648.778 L-89.8688 660.438 L-89.6796 670.81 L-88.022 672.522 L-86.7137 672.708 L-85.4711 670.875 L-83.1954 657.317 L-80.2887 662.184 L-78.5261 663.851 L-77.5 663.969 L-74.8535 662.926 L-69.4274 656.693 L-66.2245 675.249 L-65.5243 675.841 M45.7858 674.685 L45.7858 674.685 L52.184 671.288 L53.2848 670.19 L54.8622 667.554 L54.8425 663.472 L53.4724 663.158 L49.1901 667.285 L45.5275 669.842 L44.0201 669.503 L43.1485 668.526 L43.1186 665.832 L55.1833 660.286 L55.8412 659.525 L55.842 658.473 L54.526 657.149 L52.4462 657.138 L46.5605 659.864 L44.9998 659.936 L43.1674 655.536 L44.8099 653.715 L47.4457 652.138 L50.4965 652.015 L53.1306 652.865 L54.8375 650.5 L53.1325 648.102 L45.4458 648.138 L42.8099 649.715 L38.149 654.474 L38.149 656.526 L39.8367 658.539 L38.1305 665.438 L38.1343 668.559 L39.8471 672.319 M34.9593 674.523 L34.9593 674.523 L36.7993 672.5 L35.225 670.751 L31.5586 669.134 L26.8674 668.898 L25.1509 666.484 L26.87 658.562 L26.8513 655.474 L25.5261 654.149 L23.4777 654.15 L22.793 654.725 L21.13 662.438 L21.1377 668.554 L22.6944 671.166 L24.6016 672.195 L33.4385 674.863 M15.4827 672.957 L15.4827 672.957 L17.6821 670.806 L17.9856 669.494 L17.9842 654.504 L17.5278 653.157 L14.4767 653.148 L13.7505 653.699 L12.1569 650.684 L7.55407 648.138 L6.49431 648.014 L2.43942 648.132 L-7.44062 651.861 L-8.97884 651.505 L-13.4414 649.134 L-18.5542 649.138 L-21.1901 650.715 L-22.8421 652.473 L-22.5024 653.981 L-21.1606 655.541 L-22.8506 665.483 L-21.2847 668.19 L-18.2251 671.249 L-14.5585 672.865 L-12.446 672.862 L-9.80997 671.285 L-7.1486 668.526 L-7.14865 665.474 L-8.49999 664.201 L-12.4737 667.851 L-15.5263 667.851 L-17.8515 665.526 L-17.909 662.929 L-8.73053 660.211 L-8.15211 659.527 L-8.03468 658.067 L-15.9653 655.933 L-15.528 654.157 L-12.8522 654.102 L-11.1454 655.867 L-8.46188 654.165 L-3.05061 656.028 L-3.10173 661.147 L-4.98207 663.456 L-4.85152 665.526 L-3.77872 666.741 L-2.21856 672.259 L-0.452011 672.971 L1.82227 670.528 L1.20055 669.5 L1.79922 668.5 L1.01613 666.496 L1.49735 664.019 L2.47368 663.149 L3.50349 663.015 L6.52612 663.147 L7.50051 663.799 L8.82285 662.472 L6.52388 659.149 L1.95347 658.921 L0.155479 655.68 L-1.70871 654.287 L-0.526421 653.149 L7.49646 653.015 L8.9818 653.498 L11.3416 655.725 L11.8568 655.146 L13.9712 672.462 M250.79 668.679 L250.79 668.679 L253.851 666.524 L254.102 662.853 L255.898 661.147 L255.851 658.474 L253.791 656.276 L251.309 646.844 L249.526 645.149 L247.474 645.149 L245.527 646.842 L243.471 646.177 L240.718 647.81 L235.138 661.446 L235.148 665.526 L237.472 667.849 L239.133 667.896 L241.283 665.192 L243.048 661.96 L246.938 660.081 L249.696 668.159 M208.959 668.523 L208.959 668.523 L210.203 667.284 L211.992 658.053 L214.476 660.851 L217.526 660.851 L222.285 656.19 L224.533 653.115 L228.698 665.165 L230.471 666.849 L231.548 666.971 L233.683 664.805 L233.862 662.446 L232.177 659.529 L232.833 658.463 L230.21 649.577 L228.288 645.815 L226.526 644.149 L224.018 644.498 L217.5 652.796 L216.754 652.225 L215.249 648.775 L212.526 646.149 L209.867 646.102 L207.717 648.808 L206.138 651.446 L206.014 652.506 L206.015 666.496 L206.497 667.981 L207.472 668.842 M263.969 666.527 L263.969 666.527 L264.979 665.986 L267.037 661.09 L273.472 663.822 L274.5 663.201 L275.471 663.843 L276.555 663.856 L278.897 662.133 L278.981 661.548 L278.887 659.846 L277.165 658.709 L269.755 656.228 L269.203 655.497 L270.823 653.707 L276.224 651.25 L277.849 649.528 L277.896 647.867 L275.493 646.157 L271.774 647.686 L266.521 650.823 L266.158 649.473 L266.852 648.526 L266.851 644.474 L265.526 643.149 L264.5 643.031 L262.988 643.528 L262.051 645.673 L260.159 659.458 L260.852 660.474 L261.102 665.133 L263.478 666.825 M289.786 664.685 L289.786 664.685 L294.182 662.29 L296.999 659.5 L297.851 658.526 L297.842 656.472 L296.496 656.017 L294.446 656.138 L290.526 658.852 L288 658.938 L286.167 654.537 L286.851 653.53 L287.048 652.029 L297.979 648.456 L300.918 647.052 L300.894 644.841 L299.289 643.291 L299.851 642.524 L299.851 640.474 L298.19 638.715 L295.554 637.138 L293.439 637.131 L287.413 638.87 L284.112 640.861 L284.107 642.13 L286.5 643.838 L289.446 642.138 L290.506 642.014 L296.525 642.159 L296.881 643.048 L289.494 645.985 L287.446 645.862 L284.689 644.24 L282.921 647.307 L281.135 654.436 L282.779 661.259 L284.754 663.232 M-49.4503 664.829 L-49.4503 664.829 L-51.5185 664.838 L-51.8285 664.473 L-50.2516 661.301 L-49.149 662.474 M211.522 656.79 L211.522 656.79 L211.495 656.197 "/></g><g><path fill="#909090" d="M-335.21 755.679 L-335.21 755.679 L-332.159 753.525 L-332.985 749.506 L-331.171 744.534 L-331.842 743.529 L-331.86 742.441 L-326.352 720.778 L-319.288 706.816 L-317.715 705.19 L-315.924 701.868 L-306.184 693.712 L-298.776 690.25 L-297.19 688.715 L-291.227 684.753 L-279.443 679.795 L-261.287 673.8 L-248.785 671.388 L-235.539 668.165 L-233.497 668.985 L-228.474 668.852 L-227.527 668.157 L-225.458 668.84 L-214.542 667.16 L-212.5 667.969 L-210.526 667.148 L-208.5 667.001 L-198.504 667.015 L-196.466 667.829 L-192.534 666.171 L-191.527 666.843 L-190.473 666.843 L-188.496 666.016 L-186.474 666.148 L-185.5 666.799 L-184.5 666.201 L-182.497 666.985 L-174.504 666.985 L-172.5 666.201 L-170.5 666.969 L-168.526 666.148 L-166.5 666.002 L-164.474 666.148 L-163.527 666.843 L-161.526 666.148 L-158.504 666.015 L-155.437 666.868 L-139.501 665.138 L-126.542 666.841 L-125.526 666.147 L-123.5 666.002 L-121.474 666.147 L-120.5 666.799 L-119.526 666.147 L-114.503 666.015 L-112.472 666.822 L-110.107 665.13 L-110.113 663.858 L-114.446 661.138 L-115.506 661.014 L-124.497 661.015 L-126.5 661.799 L-128.504 661.015 L-153.5 661.001 L-155.526 661.147 L-156.5 661.799 L-157.47 661.158 L-158.563 661.132 L-175.457 662.842 L-177.503 662.015 L-193.497 662.015 L-196.5 662.969 L-199.563 662.132 L-217.503 663.97 L-219.541 663.161 L-229.437 664.867 L-232.504 664.016 L-234.526 664.148 L-235.5 664.799 L-236.539 664.165 L-262.699 669.805 L-278.267 674.646 L-294.435 680.816 L-297.816 683.288 L-313.184 691.711 L-317.166 694.692 L-318.717 697.189 L-320.145 698.081 L-325.506 706.035 L-330.253 715.783 L-334.097 728.993 L-336.704 744.442 L-337.986 749.506 L-337.851 753.526 L-335.977 755.498 M78.864 665.524 L78.864 665.524 L120.436 662.132 L122.5 662.799 L123.5 662.201 L124.474 662.853 L126.5 662.999 L130.496 662.985 L133.527 662.157 L135.497 662.97 L143.46 661.163 L144.5 661.799 L146.503 661.015 L149.562 661.131 L157.503 662.97 L159.5 662.201 L160.473 662.843 L161.527 662.843 L163.5 662.031 L165.5 662.799 L167.5 662.031 L169.5 662.799 L170.473 662.157 L171.527 662.157 L172.473 662.843 L173.527 662.843 L174.5 662.201 L175.474 662.852 L179.497 662.985 L181.474 662.148 L183.496 662.016 L185.5 662.799 L186.5 662.201 L187.473 662.843 L188.527 662.842 L190.842 660.527 L190.843 659.473 L190.202 658.503 L190.699 657.752 L187.486 656.145 L169.543 657.842 L168.527 657.157 L165.473 657.843 L164.526 657.148 L160.5 657.001 L156.437 657.866 L147.502 656.142 L140.563 657.865 L137.473 657.157 L135.5 657.969 L132.437 657.132 L113.543 658.842 L112.5 658.201 L111.527 658.843 L110.473 658.843 L109.529 658.158 L108.437 658.134 L98.4932 659.986 L95.4739 659.852 L93.4963 659.015 L85.5035 659.015 L83.4999 659.799 L82.526 659.147 L78.5033 659.015 L77.0193 659.497 L76.1484 660.474 L76.0151 663.496 L76.4973 664.981 L77.4714 665.841 "/></g><g><path fill="#000000" d="M-33.2039 899.695 L-33.2039 899.695 L-28.8175 897.29 L-27.5025 896.002 L-25.1345 891.558 L-25.138 889.446 L-28.9239 884.066 L-21.6711 882.151 L-20.1338 880.103 L-17.1575 880.472 L-17.1484 882.526 L-17.9848 884.503 L-17.8514 895.526 L-16.5282 896.849 L-14.7714 896.861 L-11.8922 880.057 L-10.5263 880.852 L-8.50371 880.984 L-7.01985 880.503 L-6.20071 879.5 L-8.8298 876.702 L-10.5755 875.81 L-15.4396 874.133 L-17.5604 874.133 L-22.2458 875.768 L-25.4995 878.799 L-27.5035 878.015 L-30.4965 878.015 L-31.9819 878.498 L-33.2848 879.81 L-34.8623 882.446 L-34.9846 883.506 L-34.8509 885.524 L-31.6923 887.834 L-30.1436 890.445 L-30.4976 891.981 L-32.5332 893.828 L-35.6987 892.248 L-35.2024 891.497 L-37.4711 889.158 L-38.8133 889.319 L-44.4414 891.866 L-47.4964 891.984 L-48.8721 891.481 L-45.3329 889.68 L-37.5234 887 L-37.7409 885.783 L-43.4379 884.136 L-45.4742 884.852 L-47.5277 884.842 L-47.9685 883.5 L-47.0003 881.502 L-44.1341 879.657 L-35.7404 877.221 L-34.2007 875.5 L-36.4737 873.149 L-39.5586 873.134 L-46.4664 875.829 L-49.474 873.149 L-50.4967 873.03 L-68.8132 874.839 L-75.4601 875.964 L-76.8742 877.52 L-73.5582 879.865 L-71.4743 879.852 L-69.4965 879.015 L-65.5035 879.016 L-64.1595 879.536 L-65.9862 892.507 L-65.8514 896.526 L-64.5261 897.851 L-62.478 897.85 L-61.8063 897.295 L-60.1286 882.563 L-60.1494 880.476 L-62.7147 878.311 L-60.5038 878.016 L-58.5 878.799 L-57.5261 878.147 L-54.4421 878.016 L-52.1493 881.507 L-53.9861 888.507 L-53.8521 893.526 L-52.9259 895.133 L-50.5537 896.862 L-48.5003 896.999 L-42.4414 896.866 L-38.7088 895.237 L-37.0274 898.467 L-35.9819 899.502 L-34.5025 899.97 M208.959 898.523 L208.959 898.523 L209.852 897.531 L209.984 896.496 L209.852 894.474 L209.015 892.496 L209.014 881.506 L210.954 877.078 L213.554 877.138 L216.841 879.473 L215.014 886.506 L215.148 890.526 L216.074 892.134 L219.474 894.851 L224.497 894.985 L227.5 894.031 L228.982 894.498 L230.472 895.842 L231.979 895.504 L237.185 892.287 L240.19 890.285 L241.851 888.526 L241.851 884.474 L238.296 881.284 L238.809 880.719 L241.471 879.177 L242.471 879.843 L243.555 879.856 L246.471 878.177 L247.5 878.799 L248.474 878.148 L251.521 878.163 L251.729 878.734 L249.132 888.439 L249.015 892.496 L249.498 893.982 L251.019 895.502 L252.527 895.842 L254.799 893.5 L254.147 892.526 L254.132 888.439 L256.693 879.765 L257.942 877.085 L262.496 877.015 L264.474 877.852 L266.528 877.842 L266.852 875.474 L265.926 873.867 L263.554 872.138 L252.438 872.131 L246.741 873.779 L245.501 874.799 L244.526 874.148 L241.439 874.132 L236.575 875.81 L234.529 876.977 L232.315 880.01 L230.201 877.5 L232.133 875.926 L233.682 873.804 L233.842 872.471 L232.954 870.957 L229.558 869.135 L228.5 869.029 L218.534 871.829 L217.458 871.159 L204.908 872.733 L194.799 874.729 L193.177 877.472 L195.471 879.842 L196.771 879.717 L200.441 878.134 L203.496 878.016 L204.843 878.472 L204.852 881.526 L204.201 882.5 L204.799 883.5 L204.031 885.5 L204.799 887.5 L204.201 888.5 L204.969 890.5 L204.137 893.561 L205.982 898.468 L207.499 898.969 M-6.25161 896.738 L-6.25161 896.738 L1.15729 894.334 L3.85092 892.524 L3.85141 888.474 L1.15052 885.528 L1.02905 884.453 L5.84124 880.525 L5.50236 879.019 L3.52895 877.158 L2.1925 877.316 L-2.18368 879.711 L-3.85146 881.474 L-3.85146 886.526 L-2.15124 888.47 L-2.05409 889.974 L-11.9478 893.026 L-11.8515 895.526 L-10.5263 896.851 M457.797 895.69 L457.797 895.69 L460.471 894.024 L461.797 892.503 L461.245 891.772 L453.782 889.251 L453.15 888.523 L453.149 886.474 L457.015 882.5 L458.133 881.926 L459.856 879.555 L459.841 878.471 L457.966 875.993 L447.54 873.163 L445.83 874.094 L444.854 875.589 L443.132 880.439 L443.148 892.526 L445.474 894.852 L448.061 894.917 L449.745 892.299 L450.823 893.293 L456.439 895.86 M304.959 895.523 L304.959 895.523 L306.234 894.242 L307.766 890.305 L310.575 892.19 L315.438 893.863 L316.562 893.863 L323.047 891.923 L325.709 886.823 L326.476 886.149 L327.504 886.016 L329.558 886.134 L333.495 888.01 L332.106 889.841 L332.102 893.133 L334.446 894.861 L336.526 894.851 L338.249 893.225 L339.866 889.559 L339.986 886.506 L338.206 880.552 L336.288 876.815 L334.19 874.715 L330.526 872.149 L328.446 872.138 L324.711 874.816 L319.282 886.19 L316.556 887.856 L315.445 887.855 L313.296 886.284 L316.313 884.158 L318.843 878.507 L317.322 875.846 L311.539 874.165 L310.527 874.843 L309.472 874.842 L307.528 873.15 L305.792 873.133 L302.014 890.506 L302.148 894.526 L303.472 895.842 M287.496 895.852 L287.496 895.852 L288.218 895.258 L290.034 887.06 L300.929 884.014 L300.477 881.992 L297.554 880.138 L293.503 880.015 L291.499 880.799 L290.167 879.464 L292 875.062 L295.526 875.149 L299.471 878.849 L300.56 878.975 L302.829 875.534 L301.926 873.866 L298.19 870.715 L295.485 869.151 L287.124 871.459 L284.693 872.834 L283.138 875.446 L283.149 877.526 L284.499 878.799 L285.506 878.2 L285.969 879.497 L284.138 893.553 L285.868 895.896 M466.842 894.545 L466.842 894.545 L468.748 890.301 L471.575 892.189 L476.463 893.833 L477.5 893.201 L479.503 893.985 L490.554 893.862 L492.893 892.131 L492.971 891.506 L491.784 890.063 L472.942 886.959 L471.13 886.083 L471.81 884.717 L475.816 881.711 L480.477 879.007 L480.984 877.496 L480.528 875.157 L477.473 875.149 L471.816 878.711 L468.742 881.701 L466.218 873.74 L465.523 873.149 L463.504 873.017 L462.157 873.472 L462.015 875.493 L463.805 893.297 L465.472 894.842 M384.769 894.719 L384.769 894.719 L388.492 893.007 L390.898 891.133 L390.843 888.472 L389.496 888.016 L386.503 888.015 L384.526 888.852 L380.474 888.851 L379.151 887.529 L379.099 885.914 L391.861 882.904 L392.969 881.543 L392.849 880.476 L392.28 879.796 L383.767 878.249 L382.134 876.103 L379.474 876.149 L376.707 878.823 L375.686 880.774 L374.134 884.441 L374.138 888.554 L375.715 891.19 L377.741 893.221 L383.437 894.864 M-37.4782 894.79 L-37.4782 894.79 L-37.5048 894.197 M414.797 893.692 L414.797 893.692 L417.471 892.024 L419.291 890.18 L421.255 886.503 L422.968 890.463 L425.474 892.851 L429.554 892.862 L434.184 890.289 L437.285 887.19 L439.851 883.526 L439.892 878.856 L435.554 876.138 L431.446 876.138 L425.776 878.75 L422.284 882.704 L419.498 879.202 L417.029 880.048 L414.3 887.164 L413.498 887.798 L411.148 885.526 L411.015 880.503 L411.969 877.5 L411.189 875.717 L408.528 874.177 L406.978 875.527 L402.314 884.715 L402.016 882.504 L402.856 879.445 L401.133 877.104 L399.472 877.151 L397.79 878.725 L396.147 886.491 L398.844 891.886 L402.526 891.851 L406.498 888.202 L409.81 892.285 L412.446 893.862 M368.958 893.523 L368.958 893.523 L369.802 892.505 L369.157 891.527 L369.799 889.5 L369.157 888.527 L369.157 887.473 L369.799 886.5 L369.2 885.5 L369.838 884.459 L367.922 875.869 L365.554 874.144 L364.471 874.158 L361.715 876.81 L356.822 883.89 L353.923 877.868 L351.689 876.165 L350.133 874.104 L348.472 874.15 L346.956 875.046 L343.483 881.069 L341.134 886.441 L341.148 888.526 L342.074 890.133 L344.472 891.822 L344.977 891.498 L346.288 890.184 L348.526 886.026 L350.099 884.089 L353.715 890.19 L355.474 891.851 L358.526 891.851 L362.5 888.201 L363.851 889.474 L364.102 892.133 L366.446 893.861 M-36.2096 893.478 L-36.2096 893.478 L-36.8027 893.505 M448.522 890.79 L448.522 890.79 L448.495 890.197 M224.549 889.837 L224.549 889.837 L222.45 889.862 L220.292 888.284 L220.852 887.524 L221.102 883.867 L223.446 882.138 L231.133 882.102 L234.799 886.5 L232.526 888.851 L229.474 888.852 L228.5 888.201 L227.5 888.799 L226.499 888.201 M428.545 887.829 L428.545 887.829 L427.157 887.531 L427.162 884.476 L429.527 884.843 L430.473 884.158 L431.526 884.167 L431.864 885.131 M363.527 887.79 L363.527 887.79 L363.168 886.48 L363.5 886.198 L363.832 887.53 M448.334 883.66 L448.334 883.66 L448.157 878.472 L449.504 878.017 L451.526 878.149 L452.799 879.5 M432.522 883.787 L432.522 883.787 L432.163 882.476 L433.525 882.17 L433.5 882.973 M309.547 881.81 L309.547 881.81 L309.163 880.476 L309.473 880.158 L311.715 880.311 M331.545 880.824 L331.545 880.824 L329.509 880.982 L328.199 880.505 L329.472 879.158 L330.527 879.158 L331.804 880.51 M-16.4782 879.79 L-16.4782 879.79 L-16.5048 879.197 M222.676 877.783 L222.676 877.783 L221.256 875.738 L226.439 874.131 L228.496 874.017 L229.8 874.494 L229.203 875.497 L229.69 876.208 M391.799 875.684 L391.799 875.684 L393.982 873.55 L393.981 872.452 L391.288 869.8 L380.437 868.138 L375.754 869.768 L374.149 871.474 L374.149 873.526 L375.471 874.841 L380.51 873.147 L389.28 874.794 L390.471 875.842 "/></g><g><path fill="#909090" d="M-183.295 901.768 L-183.295 901.768 L-163.497 900.03 L-160.496 900.984 L-158.474 900.852 L-156.5 900.031 L-153.473 900.843 L-151.5 900.031 L-149.526 900.852 L-144.507 900.986 L-132.542 899.16 L-131.459 899.839 L-124.865 898.936 L-98.2295 896.978 L-90.7901 895.256 L-90.1497 894.523 L-90.1491 892.474 L-91.4737 891.149 L-94.5616 891.131 L-106.437 893.865 L-108.5 893.201 L-109.473 893.843 L-110.527 893.843 L-112.497 893.03 L-134.459 895.839 L-135.5 895.201 L-136.473 895.843 L-137.527 895.843 L-138.47 895.158 L-139.563 895.131 L-179.458 897.841 L-180.474 897.147 L-183.497 897.015 L-185.474 897.852 L-187.496 897.984 L-190.504 897.016 L-192.526 897.147 L-193.5 897.799 L-194.474 897.147 L-199.497 897.015 L-201.541 897.838 L-209.46 896.162 L-210.474 896.852 L-212.493 896.985 L-222.437 895.134 L-225.563 895.867 L-235.91 893.958 L-237.474 893.18 L-238.471 893.843 L-239.555 893.856 L-242.471 892.177 L-243.474 892.852 L-245.493 892.985 L-269.437 889.135 L-271.528 889.822 L-279.252 886.908 L-289.609 884.643 L-294.487 883.012 L-296.292 881.959 L-305.866 879.52 L-315.751 874.771 L-320.246 873.232 L-325.293 868.177 L-331.499 853.972 L-334.865 841.563 L-334.172 839.466 L-336.837 829.54 L-336.177 828.471 L-338.475 825.159 L-339.98 825.497 L-340.851 826.474 L-340.869 831.562 L-337.292 851.466 L-332.326 865.226 L-329.288 871.184 L-324.002 876.498 L-317.251 880.227 L-305.9 884.517 L-293.198 888.37 L-273.706 893.112 L-266.455 894.349 L-224.542 899.84 L-223.53 899.158 L-222.437 899.134 L-214.215 900.987 L-212.526 901.821 L-210.459 900.161 L-201.563 901.866 L-197.5 901.002 L-195.474 901.148 L-193.5 901.969 L-191.527 901.157 L-188.497 901.985 M151.736 896.73 L151.736 896.73 L169.458 894.159 L170.5 894.799 L171.474 894.147 L175.497 894.015 L177.534 894.829 L181.315 893.23 L183.502 895.798 L185.851 893.526 L185.97 892.502 L185.683 891.195 L183.545 889.018 L178.507 889.014 L150.5 891.999 L117.503 891.985 L114.496 891.016 L112.474 891.147 L111.5 891.799 L110.526 891.148 L108.504 891.016 L105.497 891.985 L102.474 891.853 L101.5 891.201 L99.4963 891.985 L93.5064 891.986 L78.541 889.161 L77.526 889.852 L75.4739 889.852 L74.4999 889.201 L73.5296 889.842 L72.4366 889.869 L30.5425 887.158 L29.5263 887.852 L26.4999 887.999 L24.4738 887.852 L22.4965 887.015 L17.8672 887.102 L16.1441 889.446 L16.7314 891.212 L23.4601 892.837 L24.4999 892.201 L25.4738 892.852 L27.4962 892.984 L29.5418 892.16 L41.458 893.84 L42.5413 893.16 L53.5069 894.985 L55.526 894.852 L57.5036 894.016 L62.4998 894.999 L67.5262 894.852 L68.5423 894.159 L91.5066 896.986 L107.496 896.985 L109.5 896.201 L110.474 896.852 L112.496 896.984 L114.473 896.157 L116.473 896.843 L118.5 896.201 L120.503 896.985 L133.496 896.985 L135.5 896.201 L137.503 896.985 L142.496 896.985 L145.5 896.031 L147.5 896.799 L149.5 896.031 "/></g>
</svg>