<svg width="1404" height="1872" viewBox="-702 0 1404 1872" xmlns="http://www.w3.org/2000/svg" xmlns:xlink="http://www.w3.org/1999/xlink" version="1.2" baseProfile="tiny"><title>LP lecture</title>\n<g><path fill="#000000" d="M193.736 1054.73 L193.736 1054.73 L204.133 1051.9 L205.837 1049.5 L204.128 1047.14 L199.534 1048.83 L198.463 1048.17 L193.5 1049.85 L189.062 1048 L189.031 1045.07 L201.239 1042.23 L204.85 1039.52 L204.842 1037.47 L203.496 1037.02 L200.439 1037.13 L191.511 1039.85 L189.104 1038.13 L190.078 1032.95 L193.442 1031.13 L198.496 1031.02 L201.527 1031.84 L202.849 1030.53 L202.885 1028.84 L197.559 1026.13 L194.438 1026.13 L188.741 1027.78 L185.867 1030.07 L184.178 1032.47 L184.852 1033.47 L184.999 1037.5 L184.852 1039.53 L184.201 1040.5 L184.799 1041.5 L184.015 1043.5 L184.138 1048.55 L185.715 1051.19 L187.741 1053.22 M210.455 1045.82 L210.455 1045.82 L214.308 1043.17 L218.711 1035.82 L220.528 1034.18 L230.037 1040.51 L234.445 1042.86 L235.842 1042.53 L235.851 1039.48 L235.183 1038.71 L230.816 1036.29 L223.158 1030.53 L223.496 1029.02 L225.715 1025.81 L227.81 1023.71 L230.307 1022.17 L231.838 1019.5 L230.308 1017.24 L225.816 1019.71 L221.715 1023.81 L219.5 1026.8 L214.285 1019.81 L209.981 1015.5 L208.472 1015.16 L207.149 1016.47 L207.138 1018.55 L208.869 1020.9 L210.142 1021.11 L216.822 1030.53 L211.923 1039.13 L209.554 1040.86 L207.5 1040.2 L206.158 1041.47 L207 1043.5 M20.4735 1044.96 L20.4735 1044.96 L21.977 1044.51 L22.8649 1043.49 L22.8652 1042.87 L16.8342 1038.31 L13.1577 1033.53 L13.4974 1032.02 L19.8508 1026.53 L19.5278 1024.16 L16.4736 1024.15 L11.5031 1028.8 L10.7718 1028.25 L9.01764 1023.53 L7.49658 1023.02 L5.47198 1023.16 L5.0166 1024.5 L5.1377 1026.55 L7.86035 1032.44 L7.84143 1033.53 L3.99481 1037.95 L-2.49237 1039.99 L-6.44165 1041.87 L-8.54504 1041.98 L-10.8555 1039.56 L-9.29596 1034.82 L-4.72949 1033.31 L-2.02618 1031.56 L-2.49731 1030.02 L-3.47266 1029.16 L-6.49988 1029.97 L-7.83514 1029.53 L-7.15747 1027.53 L-7.79718 1025.5 L-7.25928 1024.78 L-1.51288 1023.15 L1.4718 1024.82 L2.85071 1023.53 L2.8504 1021.48 L2.18939 1020.72 L-0.446228 1019.14 L-1.49927 1019.03 L-8.4386 1020.87 L-10.4932 1020.99 L-21.5034 1019.03 L-24.5037 1019.98 L-27.5262 1019.85 L-28.473 1019.16 L-30.5 1019.8 L-31.5284 1019.18 L-33.8977 1020.87 L-33.9739 1022.92 L-24.0262 1025.08 L-24.0152 1029.5 L-24.8522 1031.47 L-24.9857 1034.49 L-24.6833 1035.8 L-23.1328 1037.9 L-21.4719 1037.85 L-20.2009 1036.5 L-20.8525 1035.53 L-20.9852 1033.51 L-19.023 1024.54 L-17.4728 1024.16 L-16.5001 1024.8 L-15.4994 1024.2 L-12.1025 1026.87 L-12.1379 1029.55 L-13.8625 1032.45 L-13.9858 1033.51 L-13.8517 1042.53 L-12.1902 1044.28 L-9.5545 1045.86 L-6.43866 1045.87 L-0.422424 1044.11 L1.75079 1042.77 L6.20648 1041.27 L10.2843 1036.3 L16.8099 1043.28 L19.4487 1044.86 M-291.534 1043.98 L-291.534 1043.98 L-287.81 1042.28 L-284.715 1039.19 L-283.138 1036.55 L-283.139 1034.45 L-284.837 1032.1 L-287.711 1036.18 L-291.474 1039.85 L-296.526 1039.85 L-297.886 1037.95 L-292.227 1033.75 L-282.775 1029.25 L-281.201 1027.5 L-282.474 1026.15 L-286.554 1026.14 L-289.773 1028.25 L-295.177 1030.71 L-296.472 1031.84 L-297.834 1031.53 L-297.86 1030.44 L-296.25 1026.77 L-295.149 1025.53 L-295.148 1023.47 L-295.861 1021.86 L-291.554 1019.14 L-288.867 1019.1 L-286.498 1021.8 L-285.149 1020.53 L-285.103 1016.87 L-287.446 1015.14 L-292.554 1015.14 L-299.184 1018.71 L-302.851 1022.47 L-302.851 1024.53 L-301.149 1026.47 L-301.03 1027.5 L-302.835 1034.46 L-302.201 1035.5 L-302.843 1036.47 L-302.861 1037.56 L-300.923 1042.13 L-298.554 1043.86 M-315.03 1043.53 L-315.03 1043.53 L-313.854 1042.92 L-310.481 1036.94 L-307.14 1027.56 L-307.313 1026.2 L-308.715 1023.81 L-310.473 1022.16 L-311.98 1022.5 L-312.842 1023.47 L-312.148 1025.47 L-312.133 1027.56 L-313.796 1032.45 L-315.686 1035.72 L-315.985 1028.5 L-315.157 1025.47 L-316.074 1023.87 L-318.469 1022.18 L-319.211 1022.73 L-320.858 1029.5 L-319.024 1040.1 L-318.29 1042.18 L-315.523 1043.83 M509.83 1042.55 L509.83 1042.55 L510.856 1038.44 L509.008 1035.52 L506.867 1035.1 L505.138 1037.45 L505.148 1039.53 L506.074 1041.13 L508.445 1042.86 M490.753 1042.71 L490.753 1042.71 L499.224 1039.25 L501.856 1035.56 L500.231 1029.75 L498.183 1027.71 L492.526 1024.15 L491.503 1024.03 L485.552 1025.79 L481.815 1027.71 L480.711 1028.82 L478.137 1033.45 L478.014 1034.51 L478.148 1037.53 L480.844 1040.31 M439.497 1042.85 L439.497 1042.85 L440.842 1041.53 L440.842 1040.47 L439.148 1038.53 L439.138 1034.45 L440.867 1032.1 L450.496 1032.02 L452.5 1032.8 L453.842 1031.53 L452.973 1029 L448.56 1027.13 L444.503 1027.02 L441.471 1027.83 L441.031 1026.5 L441.842 1023.47 L441.157 1022.53 L441.165 1021.47 L442.503 1021.02 L447.496 1021.02 L450.5 1021.97 L452.5 1021.2 L454.503 1021.98 L458.528 1021.84 L458.906 1018.92 L448.562 1016.13 L445.506 1016.01 L436.232 1017.79 L428.953 1020.08 L427.14 1023.44 L427.497 1024.98 L428.472 1025.84 L429.979 1025.5 L435.446 1022.14 L437.521 1022.16 L437.835 1022.53 L436.221 1028.26 L433.179 1031.53 L434.013 1033.21 L435.791 1041.28 L437.473 1042.85 M568.843 1041.54 L568.843 1041.54 L569.985 1038.5 L570.023 1032.09 L580.986 1029.58 L580.848 1028.47 L578.526 1026.15 L568.456 1025.98 L566.146 1024.1 L563.474 1024.15 L561.75 1025.77 L560.134 1029.44 L560.149 1031.53 L561.499 1032.8 L562.472 1032.16 L563.527 1032.16 L564.851 1033.47 L564.852 1037.53 L564.031 1039.5 L564.497 1040.98 L565.473 1041.85 L567.496 1041.98 M526.829 1041.55 L526.829 1041.55 L527.137 1034.45 L528.685 1031.84 L532.225 1030.25 L537.851 1025.53 L537.984 1020.5 L536.926 1017.87 L534.228 1015.75 L530.558 1014.13 L526.441 1014.13 L521.856 1016.08 L519.177 1020.47 L519.799 1021.5 L519.201 1022.5 L520.799 1024.5 L517.171 1028.53 L518.753 1032.22 L519.472 1032.85 L520.932 1033.03 L522.796 1041.28 L524.503 1041.98 M466.796 1041.69 L466.796 1041.69 L471.472 1039.18 L472.472 1039.84 L473.527 1039.84 L476.502 1036.98 L476.984 1035.5 L476.862 1033.45 L474.002 1029.5 L473.246 1028.77 L468.561 1027.14 L467.021 1027.5 L466.224 1028.25 L460.823 1030.71 L457.715 1033.81 L456.138 1036.45 L456.148 1038.53 L457.046 1040.04 L460.441 1041.86 L462.526 1041.85 L463.472 1041.16 L465.471 1041.84 M-326.156 1041.54 L-326.156 1041.54 L-325.201 1039.5 L-325.853 1038.53 L-325.938 1036 L-321.532 1034.01 L-321.203 1033.5 L-323.81 1030.71 L-326.269 1029.2 L-328.647 1020.78 L-330.477 1017.15 L-333.526 1017.15 L-336.716 1020.71 L-337.476 1020.15 L-340.526 1020.15 L-341.759 1021.23 L-351.259 1023.78 L-353.474 1025.85 L-354.5 1025.97 L-355.842 1025.53 L-355.969 1024.5 L-354.912 1021.84 L-349.559 1019.13 L-346.474 1019.15 L-345.527 1019.84 L-344.473 1019.84 L-343.151 1018.53 L-343.115 1016.84 L-348.5 1014.15 L-355.967 1017.5 L-359.202 1019.71 L-360.863 1031.56 L-359.207 1036.45 L-357.166 1040.31 L-354.554 1041.86 L-351.474 1041.85 L-345.691 1038.16 L-342.867 1033.08 L-340.062 1039.91 L-338.474 1039.85 L-337.751 1039.22 L-335.249 1032.78 L-334.523 1032.15 L-332.444 1032.02 L-330.891 1034.31 L-329.211 1041.27 L-327.501 1041.97 M-398.042 1041.52 L-398.042 1041.52 L-394.81 1039.28 L-392.711 1037.18 L-390.138 1032.55 L-390.014 1031.49 L-390.138 1027.45 L-393.712 1020.82 L-395.474 1019.15 L-396.504 1019.02 L-400.554 1019.14 L-403.19 1020.72 L-405.289 1022.82 L-407.862 1027.45 L-407.986 1028.51 L-407.862 1036.55 L-406.285 1039.19 L-403.526 1041.85 L-399.504 1041.98 M173.125 1040.9 L173.125 1040.9 L174.861 1038.55 L174.984 1037.49 L174.852 1035.47 L174.015 1033.5 L174.001 1028.5 L175.019 1023.09 L191.195 1020.27 L191.984 1018.5 L191.528 1016.16 L185.439 1016.13 L180.561 1017.86 L177.437 1017.13 L158.543 1018.84 L157.527 1018.16 L156.472 1018.16 L155.149 1019.47 L155.149 1021.52 L158.471 1023.82 L160.503 1023.02 L168.496 1023.02 L169.843 1023.47 L169.985 1028.5 L169.015 1031.5 L169.133 1036.56 L171 1040.94 M-415.037 1040.52 L-415.037 1040.52 L-413.857 1038.47 L-412.901 1034.39 L-411.16 1021.54 L-411.843 1020.53 L-411.843 1019.47 L-411.157 1018.53 L-411.158 1017.47 L-412.001 1016.5 L-413.473 1015.16 L-415.193 1015.7 L-417.775 1036.25 L-418.503 1036.8 L-422.285 1033.19 L-426.713 1025.82 L-428.134 1024.93 L-429.834 1022.69 L-433.473 1020.16 L-435.007 1020.52 L-437.217 1024.6 L-439.855 1034.5 L-438.02 1040.47 L-436.5 1040.97 L-434.749 1040.22 L-431.223 1028.31 L-429.711 1029.82 L-425.926 1036.13 L-420.526 1040.85 L-416.504 1040.98 M541.96 1039.52 L541.96 1039.52 L543.474 1038.15 L545.525 1038.15 L546.471 1038.84 L547.559 1038.86 L551.26 1037.32 L555.184 1035.29 L558.851 1031.53 L558.851 1025.47 L555.158 1020.69 L549.559 1018.13 L543.503 1018.02 L541.717 1018.81 L540.177 1021.47 L540.843 1022.47 L540.842 1023.53 L538.138 1027.45 L538.015 1030.5 L538.842 1033.53 L538.148 1034.47 L538.001 1037.5 L538.472 1039.84 L540.496 1039.98 M-55.2312 1039.72 L-55.2312 1039.72 L-48.8099 1036.28 L-46.7153 1034.19 L-45.1378 1031.55 L-45.148 1024.47 L-46.0742 1022.87 L-48.4464 1021.14 L-55.5543 1021.14 L-58.1901 1022.72 L-60.2498 1024.78 L-62.8622 1030.45 L-62.8624 1035.55 L-61.285 1038.19 L-59.5263 1039.85 M-98.5289 1039.96 L-98.5289 1039.96 L-97.1557 1039.53 L-96.9321 1033.99 L-82.5273 1030.12 L-79.4704 1034.02 L-76.5544 1035.86 L-71.4415 1035.87 L-65.6915 1033.16 L-63.1442 1028.56 L-63.1398 1027.44 L-64.7507 1023.77 L-68.025 1020.5 L-69.29 1020.71 L-70.8408 1019.11 L-74.4965 1019.02 L-77.1336 1020.07 L-80.2497 1023.77 L-82.4756 1027.84 L-84.4741 1027.15 L-87.4936 1027.01 L-94.4388 1028.87 L-96.5277 1028.84 L-96.9849 1025.5 L-96.031 1022.5 L-96.694 1020.77 L-77.9441 1017.89 L-76.5222 1017 L-76.5327 1015.99 L-81.5089 1014.14 L-96.247 1015.94 L-107.109 1018.65 L-109.851 1020.48 L-109.843 1022.53 L-106.504 1022.98 L-104.529 1022.15 L-102.954 1022.08 L-101.135 1025.44 L-101.102 1028.13 L-104.799 1031.5 L-103.926 1033.13 L-101.732 1034.79 L-100.229 1039.25 M-379.04 1039.52 L-379.04 1039.52 L-377.712 1038.18 L-375.171 1034.11 L-371.926 1038.13 L-369.556 1039.86 L-368.198 1039.69 L-365.71 1038.18 L-363.133 1025.56 L-364.02 1023.5 L-366.526 1023.15 L-367.916 1023.99 L-369.94 1032.31 L-372.782 1022.74 L-373.478 1022.15 L-375.524 1022.15 L-377.187 1024.58 L-379.712 1032.19 L-380.682 1033.72 L-380.985 1026.5 L-380.148 1024.53 L-380.149 1021.47 L-381.474 1020.15 L-383.522 1020.15 L-384.201 1020.72 L-385.867 1032.56 L-384.19 1037.42 L-383.006 1039.48 L-381.496 1039.98 M-39.046 1038.52 L-39.046 1038.52 L-38.1486 1037.53 L-38.1386 1035.45 L-39.8674 1033.1 L-41.5285 1033.15 L-42.8511 1034.47 L-42.8505 1036.52 L-39.5242 1038.82 M-353.454 1037.81 L-353.454 1037.81 L-354.246 1037.22 L-355.866 1033.56 L-355.477 1030.99 L-349.25 1027.77 L-344.754 1026.23 L-342.495 1024.2 L-342.016 1025.5 L-342.162 1029.52 L-344.528 1029.16 L-346.285 1030.81 L-348.076 1034.13 M-402.125 1037.9 L-402.125 1037.9 L-403.861 1035.55 L-403.862 1028.45 L-401.923 1024.87 L-399.556 1023.14 L-398.444 1023.14 L-395.718 1024.81 L-394.134 1028.44 L-394.138 1031.55 L-397.074 1036.13 L-399.446 1037.86 M492.574 1036.85 L492.574 1036.85 L484.474 1036.85 L483.158 1035.53 L483.143 1034.44 L485.29 1031.29 L487.454 1032.97 L488.528 1032.85 L491.471 1030.16 L492.555 1030.14 L495.19 1031.72 L496.864 1033.51 L495.008 1035.46 M466.574 1036.85 L466.574 1036.85 L462.503 1036.98 L461.199 1036.51 L462.775 1034.75 L466.505 1033.15 L470.496 1034.75 M-55.4257 1034.85 L-55.4257 1034.85 L-57.8427 1034.53 L-57.8624 1030.45 L-56.2849 1027.81 L-54.7073 1026.29 L-52.5074 1027.86 L-50.5 1026.2 L-49.158 1027.47 L-50.1003 1031.13 M548.574 1032.85 L548.574 1032.85 L546.444 1032.87 L543.078 1031.05 L543.147 1028.47 L543.799 1027.5 L543.148 1026.53 L543.149 1024.47 L544.473 1023.15 L548.526 1023.15 L549.471 1023.85 L551.133 1024.1 L553.851 1027.47 L553.85 1029.52 L553.476 1030.01 M-72.4221 1031.85 L-72.4221 1031.85 L-75.5267 1031.85 L-77.8293 1029.47 L-76.2496 1025.77 L-73.5262 1023.15 L-72.5002 1023.03 L-71.1585 1023.47 L-70.923 1025.05 L-68.0164 1027.44 L-68.5291 1030.01 M-8.47839 1030.79 L-8.47839 1030.79 L-8.50488 1030.2 M-331.45 1027.83 L-331.45 1027.83 L-333.834 1027.53 L-333.703 1026.21 L-332.5 1024.25 L-331.141 1026.44 M527.695 1026.76 L527.695 1026.76 L525.135 1020.87 L527.444 1019.14 L528.56 1019.14 L532.225 1020.75 L532.841 1021.48 L532.842 1022.53 L530.189 1025.29 M-337.478 1024.79 L-337.478 1024.79 L-337.505 1024.2 M578.843 1023.54 L578.843 1023.54 L579.969 1020.5 L579.001 1018.5 L578.268 1017.79 L571.562 1016.13 L567.5 1017 L565.473 1016.85 L564.463 1016.17 L559.794 1017.73 L558.177 1020.47 L560.472 1022.84 L563.503 1022.02 L574.544 1022.02 L576.853 1023.9 M-101.478 1021.79 L-101.478 1021.79 L-101.505 1021.2 M-450.04 920.523 L-450.04 920.523 L-448.707 919.177 L-446.134 913.559 L-446.157 897.472 L-447.5 897.031 L-449.193 897.703 L-451.677 915.136 L-452.254 915.696 L-454.867 908.56 L-454.852 906.474 L-454.148 905.526 L-454.103 902.867 L-456.472 901.178 L-456.977 901.502 L-458.25 902.776 L-460.707 908.177 L-465.505 912.8 L-465.984 911.496 L-465.985 904.503 L-465.148 902.526 L-465.103 899.867 L-467.5 898.162 L-469.898 899.867 L-469.985 913.496 L-468.926 916.133 L-466.493 917.843 L-462.775 916.249 L-458.748 912.301 L-455.014 920.471 L-452.5 920.998 M-573.041 918.523 L-573.041 918.523 L-572.148 917.531 L-572.016 915.504 L-572.498 914.018 L-573.851 912.526 L-573.985 911.496 L-573.985 907.503 L-573.246 905.771 L-567.494 904.014 L-559.504 904.015 L-556.473 904.842 L-555.158 903.527 L-555.498 902.019 L-556.72 900.794 L-565.498 899.142 L-573.531 900.834 L-573.984 899.496 L-573.868 896.439 L-572.229 891.754 L-570.497 891.015 L-565.441 891.134 L-552.494 894.985 L-550.474 894.851 L-549.5 893.974 L-550.081 891.856 L-555.558 888.795 L-563.441 886.134 L-570.497 886.015 L-572.5 886.799 L-573.474 886.147 L-576.494 886.014 L-583.467 887.98 L-583.896 890.133 L-581.555 891.856 L-579.499 891.201 L-578.149 892.474 L-578.148 894.526 L-578.985 896.503 L-578.862 915.554 L-576.524 918.851 L-574.504 918.984 M-524.248 915.733 L-524.248 915.733 L-519.511 914.01 L-516.81 912.285 L-515.768 911.246 L-514.132 906.56 L-514.134 903.441 L-516.707 897.823 L-517.775 896.75 L-521.442 895.135 L-523.526 895.148 L-524.5 895.799 L-525.473 895.157 L-526.981 895.498 L-530.293 898.823 L-532.866 904.441 L-532.862 910.554 L-531.285 913.19 L-530.246 914.232 L-525.562 915.862 M-504.041 914.523 L-504.041 914.523 L-503.157 913.534 L-503.144 912.445 L-504.717 909.811 L-506.131 909.135 L-507.862 911.446 L-507.843 914.528 L-505.504 914.984 M-546.204 914.695 L-546.204 914.695 L-540.868 911.924 L-537.702 908.17 L-536.81 906.424 L-535.133 901.56 L-535.138 899.446 L-536.715 896.81 L-538.474 895.149 L-542.526 895.147 L-543.5 895.799 L-544.474 895.148 L-546.554 895.138 L-549.19 896.715 L-551.25 898.775 L-553.852 903.474 L-553.862 909.554 L-552.285 912.19 L-549.526 914.851 M-476.04 913.523 L-476.04 913.523 L-474.707 912.177 L-472.134 906.559 L-472.014 901.506 L-474.788 887.733 L-476.5 887.031 L-477.981 887.497 L-478.851 888.474 L-478.97 889.498 L-478.02 892.146 L-476.014 902.507 L-476.138 906.554 L-477.718 909.189 L-478.502 909.798 L-480.144 908.919 L-482.508 904.966 L-485.707 897.823 L-489.502 893.202 L-491.05 894.05 L-493.866 900.441 L-493.985 906.496 L-493.503 907.981 L-492.527 908.842 L-490.993 908.477 L-489.144 905.555 L-489.842 902.472 L-488.748 901.301 L-484.288 910.184 L-482.472 912.023 L-479.554 913.862 L-477.504 913.984 M-525.468 910.824 L-525.468 910.824 L-527.897 909.132 L-527.852 904.474 L-526.973 903.005 L-522.562 901.134 L-521 901.064 L-519.155 905.49 L-520.838 908.31 M-546.43 909.845 L-546.43 909.845 L-547.976 909.506 L-548.851 908.526 L-548.986 905.506 L-547.283 901.81 L-546.525 901.159 L-545.472 901.158 L-541.114 903.958 L-541.126 904.48 L-543.692 908.166 M-540.473 901.79 L-540.473 901.79 L-540.832 900.48 L-540.5 900.198 L-540.168 901.53 M-573.478 891.79 L-573.478 891.79 L-573.505 891.197 M317.745 825.721 L317.745 825.721 L322.463 824.031 L323.851 822.526 L323.842 820.472 L321.438 820.13 L313.515 821.849 L310.149 819.524 L310.148 814.474 L310.85 813.53 L311.04 812.047 L321.24 809.232 L321.841 808.524 L321.842 807.473 L320.526 806.149 L319.496 806.015 L315.473 806.148 L314.526 806.852 L312.5 806.998 L308.068 806.034 L306.129 814.438 L306.148 820.526 L307.074 822.134 L311.473 825.851 L315.526 825.853 L316.5 825.201 M375.966 823.514 L375.966 823.514 L377.672 820.205 L375.509 818.135 L373.527 819.842 L371.992 819.477 L369.772 816.249 L368.168 811.539 L368.776 810.753 L374.473 808.022 L376.851 805.526 L376.85 803.476 L371.554 800.138 L370.5 800.029 L361.868 802.078 L360.166 804.308 L357.159 806.473 L358.803 819.29 L359.476 819.841 L361.196 819.292 L362.801 806.709 L366.471 804.177 L367.472 804.843 L368.527 804.843 L369.474 804.148 L371.524 804.163 L371.499 804.975 L370.246 806.232 L365.536 807.969 L364.497 809.018 L364.016 810.504 L364.134 812.559 L366.707 818.177 L367.85 819.471 L368.106 821.144 L372.446 823.862 L374.495 823.984 M223.96 823.517 L223.96 823.517 L224.905 822.014 L226.974 808.537 L227.476 808.159 L230.91 809.02 L232.962 821.459 L234.473 822.851 L239.559 822.866 L243.228 821.247 L246.19 819.285 L248.841 816.529 L248.682 815.195 L247.13 813.135 L246.017 813.5 L244.183 815.289 L238.527 818.842 L236.5 817.974 L237.122 813.821 L244.26 811.221 L245.797 809.503 L245.224 808.754 L241.559 807.139 L239.526 807.852 L236.472 807.842 L236.158 806.472 L237.741 804.779 L243.461 803.165 L244.474 803.853 L248.527 803.842 L248.842 802.472 L248.502 802.019 L245.526 799.149 L242.506 799.014 L231.94 802.08 L230.304 804.776 L222.437 803.137 L214.686 805.769 L212.498 803.202 L210.786 804.731 L208.255 814.21 L207.499 814.796 L206.709 814.176 L203.291 806.824 L200.146 804.103 L197.994 804.522 L196.81 806.575 L195.144 811.506 L196.796 820.28 L197.476 820.841 L199.25 820.219 L201.792 814.024 L203.976 817.471 L207.5 819.838 L211.293 817.177 L214.952 809.117 L216.534 809.829 L220.44 808.14 L221.53 808.166 L221.984 809.504 L221.985 817.496 L221.148 819.474 L221.148 822.526 L222.472 823.842 M351.797 822.692 L351.797 822.692 L355.285 820.19 L356.856 817.555 L356.841 816.471 L355.527 815.158 L354.472 815.158 L352.19 817.285 L349.554 818.862 L345.867 818.898 L344.14 816.556 L344.066 814.996 L352.243 812.23 L352.85 811.523 L352.851 809.474 L351.529 808.158 L350.44 808.139 L346.56 809.865 L344.867 809.896 L343.179 807.53 L343.792 806.743 L346.154 805.882 L353.962 803.939 L353.848 802.47 L352.526 801.149 L347.503 801.015 L345.5 801.799 L344.526 801.148 L342.473 801.149 L341.245 802.232 L336.561 803.863 L333.473 803.157 L332.526 803.852 L328.503 803.985 L326.526 803.148 L324.455 803.018 L322.329 805.202 L322.811 806.282 L325.446 807.862 L327.907 808.02 L330.092 820.978 L331.526 820.848 L332.195 820.294 L334.093 807.02 L337.545 807.018 L339.822 809.472 L338.178 811.527 L341.713 821.19 L342.707 822.71 L343.502 822.202 L345.503 822.985 M274.959 822.523 L274.959 822.523 L275.852 821.531 L275.984 820.496 L275.852 818.474 L275.015 816.496 L275.138 811.446 L276.838 808.69 L281.184 806.289 L283.023 804.472 L284.862 801.554 L284.851 798.474 L282.526 796.149 L274.441 796.134 L270.775 797.753 L270.149 798.477 L270.149 800.526 L271.474 801.851 L273.526 801.851 L275.473 800.149 L279.496 800.016 L280.8 800.495 L278.244 803.234 L273.953 805.183 L271.149 807.476 L271.138 820.554 L272.867 822.896 M185.497 821.854 L185.497 821.854 L187.5 819.983 L187.866 818.855 L186.017 816.544 L186.148 812.474 L186.985 810.496 L186.897 802.867 L184.674 801.238 L182.129 811.438 L182.015 819.496 L182.497 820.981 L183.473 821.851 M303.959 820.523 L303.959 820.523 L304.864 819.497 L304.86 818.859 L297.139 814.141 L297.5 813.017 L301.851 808.526 L301.985 805.503 L301.468 803.982 L295.493 802.015 L293.441 802.134 L289.775 803.75 L287.993 806.218 L286.143 814.497 L287.781 820.259 L288.477 820.85 L290.523 820.85 L292.961 817.115 L293.516 817.121 L300.446 820.862 L302.496 820.984 M252.482 819.791 L252.482 819.791 L253.851 818.526 L253.985 817.496 L253.985 810.503 L253.201 808.499 L256.473 805.158 L258.5 805.799 L259.473 805.157 L260.527 805.158 L262.799 807.5 L261.19 809.285 L255.523 812.992 L255.031 814.5 L255.81 816.283 L258.446 817.862 L264.496 817.985 L265.982 817.502 L267.711 815.701 L263.081 813.187 L266.851 809.526 L266.985 806.503 L266.502 805.018 L262.526 801.149 L255.445 801.138 L249.149 805.476 L249.13 810.562 L250.79 818.275 M291.526 816.79 L291.526 816.79 L291.168 815.48 L291.5 815.198 L291.832 816.53 M291.839 812.493 L291.839 812.493 L291.16 812.53 L291.138 809.446 L292.867 807.102 L296.524 807.162 L296.499 807.975 L292.523 810.991 M307.717 803.76 L307.717 803.76 L321.234 801.239 L322.841 799.528 L322.835 798.471 L321.496 798.017 L319.437 798.129 L306.606 799.967 L303.769 800.762 L303.159 801.476 L303.158 802.527 L304.474 803.851 M-270.203 799.692 L-270.203 799.692 L-266.868 797.923 L-265.139 795.554 L-265.139 793.447 L-266.714 791.291 L-271.474 795.851 L-274.494 795.986 L-278.282 794.191 L-279.86 789.861 L-276.227 787.679 L-266.806 784.277 L-265.028 782.498 L-265.107 781.87 L-267.511 780.155 L-278.441 783.86 L-279.835 783.529 L-279.842 782.473 L-279.149 781.528 L-278.879 779.821 L-277.551 778.939 L-271.561 777.131 L-267.474 777.149 L-265.472 778.822 L-263.103 777.133 L-263.149 774.477 L-263.775 773.753 L-267.508 772.148 L-277.898 774.488 L-285.218 776.749 L-285.849 777.475 L-285.972 778.547 L-284.102 780.853 L-284.148 783.526 L-284.984 785.504 L-284.852 787.526 L-284.148 788.474 L-284.149 791.524 L-287.772 794.247 L-291.493 795.843 L-294.282 794.191 L-295.866 790.559 L-295.866 784.441 L-294.139 780.559 L-294.159 779.471 L-295.472 778.151 L-297.144 778.11 L-299.862 782.446 L-299.986 783.506 L-299.866 792.559 L-297.908 797.156 L-292.559 799.865 L-290.44 799.867 L-285.754 798.232 L-283.286 795.291 L-280.19 798.285 L-277.554 799.862 M-312.022 799.529 L-312.022 799.529 L-310.502 799.015 L-306.046 798.957 L-304.029 791.499 L-306.076 786.868 L-308.778 784.747 L-311.699 783.252 L-310.149 781.526 L-310.149 778.474 L-311.471 777.159 L-312.559 777.139 L-319.221 779.749 L-321.293 781.823 L-323.866 787.441 L-323.986 792.494 L-323.688 793.802 L-321.184 797.289 L-316.554 799.862 L-313.504 799.985 M487.96 798.512 L487.96 798.512 L489.856 795.556 L488.164 788.538 L489.474 787.149 L493.526 787.148 L494.471 787.851 L496.052 788.08 L498.708 794.181 L502.439 795.86 L509.906 793.526 L512.472 792.022 L514.251 790.301 L515.972 793.467 L517.775 795.249 L521.466 796.829 L523.5 796.031 L526.559 796.861 L532.177 794.293 L534.862 790.554 L534.865 788.441 L533.249 784.775 L530.866 782.926 L529.008 780.523 L527.496 780.015 L522.439 780.132 L517.562 781.862 L509.562 780.131 L506.474 780.148 L505.527 780.843 L503.471 780.177 L500.81 781.715 L498.307 784.758 L488.227 781.292 L490.046 775.043 L492.558 775.134 L496.441 776.865 L498.526 776.851 L499.842 775.528 L499.842 774.473 L498.225 772.75 L493.526 770.149 L492.503 770.03 L482.184 771.755 L477.533 772.98 L477.039 774.943 L483.99 777.426 L483.892 781.144 L480.109 783.856 L480.15 785.528 L481.47 786.849 L482.939 787.034 L485.74 797.208 L487.506 798.803 M-332.041 797.523 L-332.041 797.523 L-329.708 795.178 L-328.669 793.162 L-325.134 782.559 L-325.157 779.472 L-328.154 779.113 L-330.351 783.736 L-332.75 791.217 L-333.501 791.796 L-335.516 788.932 L-339.496 780.033 L-341.502 777.202 L-344.232 779.754 L-348.866 790.441 L-348.862 795.553 L-347.309 797.759 L-344.732 796.206 L-341.357 786.397 L-338.249 793.224 L-335.926 796.133 L-333.555 797.856 M-355.041 797.523 L-355.041 797.523 L-353.149 795.526 L-352.898 789.867 L-350.525 788.009 L-350.139 786.857 L-354.309 784.162 L-356.842 779.688 L-362.441 777.134 L-365.497 777.015 L-367.285 777.708 L-369.754 774.768 L-374.463 773.167 L-375.5 773.799 L-376.5 773.201 L-377.5 773.799 L-379.504 773.015 L-384.497 773.015 L-387.5 773.969 L-389.5 773.201 L-390.473 773.843 L-391.527 773.843 L-392.473 773.157 L-393.528 773.158 L-394.852 774.474 L-394.963 776.943 L-388.037 779.057 L-388.015 783.496 L-388.799 785.5 L-388.201 786.5 L-388.799 787.5 L-388.201 788.5 L-388.838 789.541 L-387.207 797.275 L-386.522 797.85 L-384.474 797.851 L-383.149 796.526 L-383.148 794.474 L-383.985 792.496 L-383.862 780.446 L-382.133 778.102 L-380.497 778.001 L-377.474 778.147 L-376.5 778.799 L-375.466 778.171 L-372.078 779.954 L-372.148 783.526 L-372.985 785.503 L-372.999 791.5 L-372.851 793.526 L-371.976 794.498 L-371.205 794.675 L-368.744 793.222 L-366.954 787.043 L-362.446 787.138 L-358.108 789.856 L-358.015 793.496 L-358.865 796.131 L-356.555 797.856 M-447.17 797.55 L-447.17 797.55 L-446.868 794.439 L-444.14 786.559 L-444.799 784.499 L-443.709 783.29 L-438.162 791.31 L-431.555 794.856 L-430.019 794.502 L-426.715 791.19 L-425.177 788.529 L-425.799 787.5 L-425.015 785.497 L-425.015 779.503 L-425.799 777.5 L-425.201 776.5 L-425.984 774.496 L-425.852 772.474 L-425.016 770.496 L-425.472 768.157 L-428.237 768.14 L-428.819 768.939 L-430.975 789.462 L-431.504 789.797 L-434.134 787.926 L-440.074 779.866 L-444.019 776.498 L-445.527 776.157 L-447.044 777.047 L-451.862 786.446 L-451.999 788.5 L-451.851 796.526 L-450.526 797.851 L-448.504 797.983 M335.798 795.691 L335.798 795.691 L338.271 794.204 L340.663 786.804 L343.681 779.747 L349.862 767.556 L350.1 765.853 L351.898 764.147 L351.984 761.504 L351.528 760.157 L348.867 760.102 L346.713 762.814 L340.682 774.746 L336.51 784.966 L333.288 791.184 L332.158 792.471 L332.318 793.804 L333.867 795.896 M-311.45 794.838 L-311.45 794.838 L-315.558 794.865 L-318.922 793.046 L-318.689 786.285 L-316.524 788.851 L-313.474 788.852 L-312.527 788.157 L-311.473 788.158 L-309.498 790.018 L-309.149 792.526 M-412.204 794.695 L-412.204 794.695 L-407.817 792.29 L-406.502 791.002 L-402.138 784.554 L-402.138 781.446 L-403.715 778.81 L-407.445 776.144 L-414.246 778.768 L-417.285 781.81 L-419.852 785.474 L-419.985 791.496 L-419.502 792.982 L-417.526 794.851 M1.95984 793.523 L1.95984 793.523 L7.2887 789.184 L9.86206 784.554 L9.85193 781.474 L8.91919 779.856 L3.29028 776.291 L5.86194 772.554 L5.96954 771.498 L5.50397 770.02 L3.2821 766.811 L2.49829 766.202 L1.47113 766.823 L-1.44617 765.138 L-3.55872 765.134 L-11.1844 768.712 L-12.8511 770.474 L-12.8518 772.526 L-11.9695 774.005 L-8.30493 775.768 L-8.79742 776.503 L-8.01526 778.503 L-8.01526 784.496 L-8.83301 786.537 L-7.23193 791.246 L-6.25897 792.221 L-0.561401 793.869 M-84.0419 793.523 L-84.0419 793.523 L-83.1486 792.531 L-83.0309 791.5 L-83.9849 788.496 L-83.892 782.856 L-79.5539 780.138 L-78.501 780.029 L-71.5616 781.869 L-68.4739 781.851 L-67.1511 780.529 L-67.0262 779.44 L-69.7261 777.696 L-74.4395 776.132 L-80.4966 776.015 L-83.9413 776.961 L-85.8379 769.534 L-84.4963 769.017 L-82.4387 769.131 L-72.494 771.986 L-67.4724 771.842 L-67.1583 770.472 L-68.8222 768.708 L-70.8669 767.657 L-82.4416 764.134 L-85.5536 764.138 L-87.4206 765.109 L-93.4613 766.835 L-94.4727 766.157 L-95.5276 766.158 L-96.8515 767.474 L-96.8428 770.528 L-95.4963 770.984 L-91.0368 771.048 L-87.2408 792.231 L-85.5279 793.842 M-23.0468 792.52 L-23.0468 792.52 L-21.1586 790.529 L-21.1437 789.445 L-22.9927 786.523 L-24.5276 786.158 L-25.8515 787.474 L-25.8515 790.526 L-23.9758 792.499 M-39.2313 792.72 L-39.2313 792.72 L-34.8685 790.923 L-29.1487 784.526 L-29.1345 778.441 L-30.7181 774.809 L-33.4451 773.144 L-36.5274 773.843 L-37.4744 773.148 L-39.5541 773.138 L-44.1838 775.711 L-46.2849 777.81 L-47.8624 780.446 L-47.8515 788.526 L-43.5265 792.851 M-60.2042 792.694 L-60.2042 792.694 L-55.8175 790.29 L-54.5021 789.002 L-51.1381 783.554 L-51.1379 778.446 L-52.7153 775.81 L-54.4738 774.149 L-58.5588 774.134 L-62.2252 775.751 L-65.2317 778.754 L-66.8677 783.439 L-66.8515 788.526 L-64.9544 791.043 L-61.5602 792.86 M526.577 791.854 L526.577 791.854 L521.474 791.851 L519.177 789.472 L520.715 786.81 L522.474 785.149 L524.558 785.135 L529.886 787.844 L529.921 790.046 M253.499 791.844 L253.499 791.844 L254.851 790.526 L254.985 789.497 L254.852 786.474 L254.157 785.527 L254.159 784.475 L259.184 781.289 L262.028 778.467 L263.865 774.559 L263.862 771.446 L262.285 768.81 L258.554 766.138 L255.445 766.138 L252.81 767.715 L251.148 769.474 L251.147 772.526 L251.829 773.534 L250.171 777.466 L250.799 778.5 L250.015 780.503 L250.015 788.496 L250.497 789.982 L252.018 791.502 M505.574 790.85 L505.574 790.85 L502.472 790.843 L502.018 788.455 L505.685 784.23 L510.856 786.845 L510.183 788.287 M41.8434 790.544 L41.8434 790.544 L42.8423 788.527 L42.0161 785.496 L42.4949 783.199 L47.7502 786.227 L55.4413 788.866 L58.5261 788.851 L60.7085 786.714 L57.2453 783.769 L50.0581 781.467 L47.1187 780.047 L47.4733 779.16 L49.133 778.9 L51.842 775.528 L50.9257 772.867 L48.5535 771.138 L40.4733 771.149 L37.1485 774.474 L37.1323 785.561 L38.7707 790.246 L40.4992 790.969 M31.9589 790.523 L31.9589 790.523 L32.8517 789.531 L32.9849 787.507 L31.1339 780.411 L25.9257 770.867 L23.5544 769.144 L22.4711 769.158 L20.8387 770.079 L19.2903 771.71 L18.5257 771.15 L16.8578 771.109 L14.6832 774.742 L13.0139 779.506 L13.1381 787.554 L14.8672 789.896 L17.0072 789.477 L19.8559 785.108 L24.4964 785.015 L26.9951 786.027 L29.4771 790.85 M-413.426 790.85 L-413.426 790.85 L-415.843 790.528 L-415.852 787.474 L-412.526 783.15 L-410.841 782.896 L-409.29 781.289 L-408.498 781.798 L-407.499 781.201 L-407.026 781.5 L-406.158 782.473 L-406.158 783.528 L-409.502 788.002 M-2.4798 789.179 L-2.4798 789.179 L-3.85852 787.55 L-3.98547 786.495 L-3.98505 777.503 L-3.01624 774.496 L-3.14801 772.474 L-3.84235 771.527 L-3.5304 770.166 L-2.22418 770.287 L0.751831 771.717 L-2.823 777.472 L-1.18384 779.289 L3.18353 781.711 L4.69513 783.234 L0.537109 784.968 M187.756 788.713 L187.756 788.713 L198.5 785.03 L205.493 787.843 L212.162 784.309 L214.862 779.554 L214.985 778.494 L214.862 775.446 L212.923 771.868 L210.553 770.138 L208.474 770.149 L206.184 772.289 L201.816 774.711 L200.711 775.816 L198.177 780.472 L198.968 782.5 L198.505 783.8 L196.526 782.149 L194.5 782.002 L192.439 782.132 L187.56 783.867 L185.446 783.862 L182.523 782.007 L182.137 780.439 L183.969 775.536 L185.755 773.766 L189.938 772 L189.982 769.455 L187.499 767.162 L184.81 768.715 L181.866 771.074 L178.137 776.446 L178.137 783.554 L179.849 786.318 M-38.4504 787.838 L-38.4504 787.838 L-42.5265 787.851 L-43.8516 786.526 L-43.9981 784.5 L-43.8623 782.446 L-42.3077 779.834 L-39.5558 778.139 L-38.4512 778.028 L-36.1456 779.867 L-34.4946 779.2 L-34.0021 781.5 L-34.1487 783.526 M-61.4523 787.811 L-61.4523 787.811 L-61.9822 786.504 L-61.9849 784.504 L-60.9237 780.954 L-57.5593 779.14 L-56.4698 779.166 L-56.0168 780.504 L-56.1379 782.554 L-58.5297 786.024 M488.209 786.522 L488.209 786.522 L488.802 786.495 M242.792 786.673 L242.792 786.673 L244.973 784.553 L242.995 771.811 L242.16 769.689 L239.5 768.162 L234.838 770.69 L232.923 774.132 L230.53 775.821 L229.782 775.259 L228.02 769.533 L227.524 769.159 L224.953 770.049 L222.612 774.654 L220.565 772.015 L218.867 772.102 L217.138 774.446 L217.015 780.496 L217.799 782.5 L217.177 783.528 L218.867 785.897 L221.144 785.892 L223.711 781.816 L225.5 780.201 L228.474 782.851 L230.526 782.851 L238.565 774.711 L240.797 785.284 M296.466 785.98 L296.466 785.98 L297.811 785.683 L302.183 783.289 L304.842 780.527 L304.502 779.02 L303.472 778.177 L296.493 781.843 L292.313 779.782 L299.473 777.178 L300.472 777.843 L301.527 777.842 L302.849 776.528 L302.896 774.867 L300.553 773.138 L298.438 773.131 L292.532 774.835 L292.163 774.521 L292.05 771.028 L297.461 769.165 L298.5 769.799 L299.473 769.157 L300.527 769.157 L301.474 769.852 L303.97 770.05 L306.828 778.466 L306.171 779.534 L307.753 783.225 L309.5 783.969 L310.843 783.528 L310.984 782.496 L310.852 777.474 L310.031 775.5 L310.852 773.526 L311.102 770.867 L313.446 769.138 L314.499 769.029 L319.695 770.766 L312.497 777.018 L312.138 779.554 L313.838 782.31 L318.446 784.862 L326.528 784.843 L326.968 783.5 L326.28 781.796 L317.535 780.024 L317.159 779.524 L317.523 777.993 L320.19 776.285 L324.841 771.529 L324.687 770.198 L323.285 767.81 L320.526 765.149 L314.506 765.014 L309.775 766.751 L307.526 768.851 L306.5 768.969 L305.158 768.53 L304.899 766.867 L302.553 765.138 L292.441 765.134 L286.082 767.948 L286.101 770.147 L287.898 771.853 L287.92 777.047 L280.555 780.856 L279.471 780.842 L277.148 778.526 L277.014 774.506 L279.842 766.507 L278.132 764.104 L276.474 764.151 L275.749 764.782 L274.648 767.737 L273.014 773.506 L273.137 780.554 L274.686 783.16 L278.441 784.866 L282.554 784.862 L288.309 781.241 L290.81 784.285 L293.446 785.862 M-317.45 785.81 L-317.45 785.81 L-317.866 784.866 L-315.554 783.138 L-313.284 783.315 M267.062 784.908 L267.062 784.908 L269.841 769.542 L268.527 768.158 L266.098 768.982 L264.145 781.487 L265.961 784.917 M206.574 782.85 L206.574 782.85 L203.472 782.843 L203.016 781.496 L203.497 779.018 L205.474 777.149 L206.5 777.031 L207.982 777.498 L209.842 779.473 L209.476 781.007 M-361.455 782.824 L-361.455 782.824 L-364.497 782.984 L-365.802 782.5 L-362.504 782.016 L-361.194 782.504 M41.2577 781.618 L41.2577 781.618 L41.1573 776.472 L42.5223 776.171 L42.7265 776.737 M25.5496 780.829 L25.5496 780.829 L22.4731 780.851 L21.1582 779.529 L21.2869 778.224 L22.7512 775.305 L25.8414 779.472 M210.522 778.79 L210.522 778.79 L210.495 778.197 M256.519 777.85 L256.519 777.85 L254.165 772.538 L255.473 771.149 L258.527 771.157 L258.983 772.504 L258.862 774.554 M221.522 777.79 L221.522 777.79 L221.495 777.197 M-7.47845 772.79 L-7.47845 772.79 L-7.50488 772.197 "/></g><g><path fill="#909090" d="M404.829 1039.55 L404.829 1039.55 L404.897 1036.87 L401.527 1034.16 L398.473 1034.84 L397.527 1034.16 L396.473 1034.16 L395.526 1034.85 L393.5 1035 L389.473 1034.85 L388.466 1034.17 L384.559 1035.86 L382.527 1035.16 L378.504 1035.98 L375.496 1035.02 L366.5 1035 L364.474 1035.15 L362.496 1035.98 L341.504 1035.98 L339.526 1035.15 L337.5 1035 L332.507 1035.99 L281.563 1033.13 L279.457 1033.84 L257.496 1032.03 L255.527 1032.84 L253.526 1032.15 L250.472 1032.16 L250.016 1033.5 L250.149 1035.52 L250.716 1036.2 L260.437 1037.87 L262.5 1037.2 L263.473 1037.84 L264.527 1037.84 L265.474 1037.15 L270.493 1037.01 L291.437 1038.87 L295.493 1038.01 L310.436 1039.87 L312.472 1039.16 L314.5 1039.8 L315.474 1039.15 L317.5 1039 L323.496 1039.02 L325.473 1039.84 L327.5 1039.2 L328.474 1039.85 L330.5 1040 L335.496 1039.98 L337.5 1039.2 L339.503 1039.98 L363.496 1039.98 L365.474 1039.15 L367.5 1039 L375.496 1039.02 L378.504 1039.98 L380.526 1039.85 L381.5 1039.2 L382.474 1039.85 L384.526 1039.85 L386.504 1039.02 L401.496 1039.02 L403.472 1039.84 M50.7335 1038.73 L50.7335 1038.73 L56.4377 1037.14 L58.5 1037.8 L59.5001 1037.2 L60.536 1037.83 L62.9897 1037.1 L86.457 1035.16 L88.5 1035.97 L90.5417 1035.16 L103.503 1036.97 L106.504 1036.02 L109.526 1036.15 L110.474 1036.85 L112.5 1037 L118.496 1036.98 L121.563 1036.13 L142.437 1037.87 L145.5 1037.03 L148.527 1037.84 L150.851 1035.53 L150.969 1034.5 L150.502 1033.02 L149.5 1032.2 L148.526 1032.85 L146.5 1033 L144.474 1032.85 L142.5 1032.03 L140.527 1032.84 L137.5 1032.03 L134.472 1032.84 L132.496 1032.02 L130.474 1032.15 L129.5 1032.8 L128.527 1032.16 L127.472 1032.16 L126.5 1032.8 L124.497 1032.02 L118.503 1032.02 L116.457 1032.84 L97.5425 1031.16 L95.4962 1031.98 L93.4738 1031.85 L91.4964 1031.02 L77.5031 1031.02 L74.5 1031.97 L72.4584 1031.16 L38.7042 1034.81 L38.1494 1035.48 L38.1489 1037.53 L39.4725 1038.84 L41.5 1038.2 L42.5 1038.8 L43.5 1038.2 L45.5 1038.97 L48.5 1038.03 M-184.26 1037.74 L-184.26 1037.74 L-177.494 1036.01 L-170.504 1036.02 L-167.5 1036.97 L-164.473 1036.16 L-162.497 1036.98 L-156.504 1036.98 L-154.5 1036.2 L-152.497 1036.98 L-143.5 1037 L-126.542 1035.16 L-125.528 1035.84 L-124.473 1035.84 L-122.158 1033.53 L-122.497 1032.02 L-123.473 1031.16 L-125.5 1031.8 L-126.474 1031.15 L-130.497 1031.02 L-132.5 1031.8 L-134.497 1031.03 L-142.46 1032.84 L-143.473 1032.16 L-145.5 1032.8 L-146.473 1032.16 L-147.527 1032.16 L-148.473 1032.84 L-151.527 1032.16 L-153.497 1032.97 L-164.459 1031.16 L-166.5 1031.97 L-169.503 1031.02 L-177.494 1031.01 L-182.466 1032.83 L-183.5 1032.2 L-185.504 1032.98 L-187.526 1032.85 L-188.5 1032.2 L-189.5 1032.8 L-190.5 1032.2 L-191.473 1032.84 L-192.527 1032.84 L-193.474 1032.15 L-195.497 1032.02 L-198.497 1032.97 L-220.275 1031 L-225.503 1030.03 L-228.497 1030.97 L-248.46 1028.16 L-249.474 1028.85 L-251.526 1028.85 L-252.541 1028.16 L-261.28 1029.8 L-261.971 1031.55 L-259.554 1033.86 L-258.494 1033.99 L-253.474 1033.85 L-252.527 1033.16 L-249.473 1033.84 L-248.462 1033.17 L-231.542 1035.84 L-230.528 1035.16 L-228.5 1035.8 L-227.5 1035.2 L-226.5 1035.8 L-225.53 1035.16 L-224.437 1035.14 L-220.177 1036.02 L-199.493 1037.99 L-195.474 1037.85 L-194.5 1037.2 L-192.496 1037.98 L-190.474 1037.85 L-189.527 1037.16 L-186.496 1037.98 M-466.163 1024.55 L-466.163 1024.55 L-466.147 1022.48 L-467.094 1020.83 L-481.255 1015.32 L-485.186 1013.29 L-491.19 1009.28 L-493.074 1006.87 L-499.288 1001.18 L-504.228 992.25 L-507.785 980.734 L-510.862 973.554 L-510.852 971.474 L-510.031 969.5 L-510.852 967.526 L-510.984 965.504 L-510.177 963.471 L-511.823 960.529 L-511.148 959.526 L-511.016 957.504 L-511.839 955.459 L-510.016 944.504 L-510.497 943.019 L-511.474 942.149 L-514.524 942.149 L-516.823 945.471 L-516.158 946.47 L-516.134 947.563 L-517.838 955.459 L-517.031 957.5 L-517.852 959.474 L-517.871 961.563 L-516.001 976.339 L-509.249 996.224 L-504.285 1004.19 L-494.184 1014.29 L-484.931 1019.52 L-478.597 1022.15 L-469.866 1024.65 L-467.527 1025.82 M-502.147 867.544 L-502.147 867.544 L-501.201 865.5 L-501.833 864.463 L-499.25 856.779 L-495.286 848.814 L-491.285 842.81 L-485.188 836.709 L-479.19 831.715 L-471.938 826.812 L-465.754 824.229 L-464.912 822.842 L-463.225 821.727 L-454.754 818.229 L-454.159 817.524 L-454.157 816.473 L-455.074 814.867 L-457.444 813.144 L-458.556 813.144 L-464.224 815.75 L-470.053 820.171 L-482.19 827.715 L-486.81 832.285 L-489.19 833.717 L-490.074 835.134 L-494.285 838.81 L-499.247 845.772 L-505.084 858.306 L-506.841 866.527 L-503.528 868.823 M80.9512 791.521 L80.9512 791.521 L81.8011 790.731 L83.81 790.007 L95.4581 788.16 L97.5031 788.985 L153.496 788.984 L154.843 788.528 L154.984 786.503 L154.29 784.803 L142.564 783.133 L135.562 784.864 L133.5 784.201 L131.496 784.984 L129.474 784.852 L127.496 784.015 L113.503 784.015 L111.527 784.843 L109.5 784.201 L108.5 784.799 L107.5 784.201 L106.5 784.799 L104.496 784.015 L100.474 784.147 L99.5 784.799 L97.4962 784.015 L92.5031 784.015 L90.4998 784.799 L89.46 784.163 L78.7604 786.767 L78.1495 787.477 L78.1489 789.526 L80.0243 791.499 M450.953 786.52 L450.953 786.52 L453.851 783.526 L453.531 781.166 L436.5 783 L433.474 782.852 L431.496 782.016 L429.473 782.148 L428.457 782.842 L411.543 781.158 L410.5 781.8 L409.457 781.158 L388.97 783.148 L388.235 783.665 L389.867 785.897 L390.455 785.982 L395.496 785.985 L397.5 785.201 L398.5 785.799 L399.5 785.201 L400.5 785.799 L401.5 785.201 L402.473 785.852 L405.496 785.985 L407.474 785.148 L411.5 785.001 L413.526 785.148 L415.503 785.985 L419.526 785.852 L420.542 785.159 L435.437 786.868 L438.503 786.015 L448.496 786.015 L450.505 786.802 M-115.041 786.523 L-115.041 786.523 L-113.149 784.526 L-113.031 783.5 L-113.497 782.02 L-114.5 781.201 L-115.5 781.799 L-116.473 781.157 L-117.527 781.157 L-119.504 781.985 L-127.5 781.999 L-131.527 781.157 L-132.471 781.842 L-133.563 781.867 L-153.437 779.134 L-155.5 779.799 L-157.504 779.015 L-162.526 779.147 L-163.5 779.799 L-164.5 779.201 L-166.5 779.969 L-168.5 779.201 L-169.5 779.799 L-171.5 779.031 L-173.474 779.852 L-175.497 779.984 L-178.5 779.031 L-180.474 779.852 L-183.493 779.986 L-195.458 778.16 L-196.473 778.843 L-197.527 778.843 L-199.503 778.015 L-203.526 778.148 L-204.474 778.852 L-206.5 778.999 L-212.497 778.985 L-214.5 778.201 L-215.474 778.853 L-217.5 778.998 L-219.526 778.852 L-221.5 778.031 L-223.5 778.799 L-225.504 778.015 L-230.561 778.133 L-233.865 779.108 L-244.285 780.797 L-245.851 782.474 L-245.969 783.5 L-245.528 784.843 L-243.5 784.998 L-241.474 784.853 L-240.5 784.201 L-239.527 784.843 L-237.5 784.201 L-236.46 784.837 L-227.5 783.001 L-221.504 783.015 L-219.526 783.852 L-217.5 783.999 L-204.503 783.985 L-202.458 783.158 L-185.493 784.986 L-180.504 784.985 L-178.5 784.201 L-176.497 784.985 L-168.5 784.999 L-166.474 784.852 L-164.497 784.015 L-154.507 784.014 L-144.541 785.839 L-143.526 785.148 L-141.507 785.015 L-129.542 786.84 L-128.528 786.157 L-126.5 786.799 L-125.5 786.201 L-123.497 786.985 L-120.474 786.852 L-118.5 786.031 L-116.528 786.842 "/></g>
</svg>